<?xml version="1.0" encoding="UTF-8"?><svg id="Livello_1" xmlns="http://www.w3.org/2000/svg" xmlns:xlink="http://www.w3.org/1999/xlink" viewBox="0 0 1000 1000"><defs><style>.cls-1{fill:#fff;}.cls-2{fill:#fdc309;}.cls-3{fill:url(#Sfumatura_senza_nome_104);}</style><linearGradient id="Sfumatura_senza_nome_104" x1="232.23" y1="231.77" x2="525.31" y2="581.15" gradientUnits="userSpaceOnUse"><stop offset="0" stop-color="#fdc309" stop-opacity="0"/><stop offset=".3" stop-color="#fdc309"/><stop offset=".53" stop-color="#b2710b"/><stop offset=".72" stop-color="#fdc309" stop-opacity="0"/></linearGradient></defs><rect class="cls-1" x="-.17" width="999.91" height="999.91"/><path class="cls-2" d="m613.5,848.11c-19.07,0-38.19-4.67-55.38-13.93-26.45-14.25-55.85-47.57-61.89-89.89-4.35-30.4,3.67-64.09,21.99-92.45,50.31-77.89,97.19-132.42,138.55-180.53,43.87-51.03,78.52-91.33,98.3-139.24,7.83-18.95,17.01-52.67-9.37-65.61-27.27-13.38-65.19-2.54-87.84,3.93-2.35.67-4.55,1.3-6.57,1.86-18.98,5.25-60.37,25.91-109.24,58.91,15.14,46.21,6.34,107.7-23.89,165.58-59.89,114.68-134.19,188-198.76,196.14-30.03,3.77-57.44-6.23-77.18-28.21-55.67-61.97,36.83-189.72,47.57-204.09,36.59-48.97,80.67-93.35,125.4-131.22-45.71-5.06-114.72,7.95-187.75,96.06-13.77,16.61-38.4,18.92-55.02,5.15-16.61-13.77-18.92-38.41-5.15-55.02,53.98-65.12,114.27-105.37,179.19-119.62,63.14-13.86,114.13,1.18,138.91,11.38,2.35.97,4.64,2.02,6.88,3.15,57.19-39.33,108.58-65.32,138.23-73.52,1.82-.5,3.8-1.07,5.91-1.67,31.27-8.94,89.47-25.58,143.74,1.04,58.38,28.64,76.9,93.64,47.19,165.6-24.58,59.51-64.75,106.25-111.28,160.36-39.73,46.21-84.76,98.58-132.17,171.99-7.88,12.2-11.91,27.5-10.27,38.99,2.39,16.75,16.88,29.6,21.6,32.14,8.05,4.35,21.03,7,33.28,1.43,15.56-7.06,27.22-25.87,33.72-54.4,4.8-21.04,25.76-34.22,46.78-29.41,21.04,4.8,34.21,25.74,29.41,46.78-15.34,67.26-50.67,95.95-77.61,108.18-14.92,6.77-31.08,10.14-47.28,10.14Zm-311.07-233.76c1.51.99,3.5,1.45,7.2.99,5.52-.7,26.06-5.54,58.62-38.63,27.86-28.31,55.74-68.47,80.63-116.15,15.36-29.42,21.45-55.75,22.2-76.16-41.69,34.65-83.74,76.15-118.7,122.95-31.72,42.45-50.93,91.3-49.95,107Z"/><path class="cls-3" d="m227.43,425.41c-13.77,16.61-38.4,18.92-55.02,5.15-16.61-13.77-18.92-38.41-5.15-55.02,53.98-65.12,114.27-105.37,179.19-119.62,63.14-13.86,114.14,1.18,138.91,11.38,2.34.96,4.57,2.1,6.8,3.23-25.01,17.2-51.1,36.91-77,58.84-45.71-5.04-114.69,7.93-187.73,96.04Zm243.64-40.97c-.75,20.41-6.83,46.72-22.18,76.12-9.99,19.13-2.58,42.73,16.55,52.72,5.78,3.02,11.96,4.45,18.05,4.45,14.09,0,27.7-7.64,34.67-20.99,30.22-57.87,38.95-119.31,23.82-165.52-22.54,15.22-46.66,33.07-70.91,53.23Z"/></svg>