<?xml version="1.0" encoding="UTF-8"?><svg xmlns="http://www.w3.org/2000/svg" xmlns:xlink="http://www.w3.org/1999/xlink" viewBox="0 0 1112.42 1112.42"><defs><style>.Graphic_Style_2{fill:url(#New_Gradient_Swatch_copy);}.cls-1{fill:url(#linear-gradient);}.cls-2{isolation:isolate;}.cls-2,.cls-3{fill:none;}.cls-4{fill:url(#Radial_Gradient_1-3);opacity:.52;}.cls-4,.cls-5,.cls-6,.cls-7,.cls-8,.cls-9,.cls-10,.cls-11,.cls-12,.cls-13,.cls-14,.cls-15{mix-blend-mode:screen;}.cls-16{fill:#4c5157;}.cls-17{fill:url(#linear-gradient-7);}.cls-17,.cls-18,.cls-19,.cls-3,.cls-20,.cls-21,.cls-22,.cls-23,.cls-24,.cls-25{mix-blend-mode:multiply;}.cls-18{fill:url(#linear-gradient-3);}.cls-19{fill:#515151;}.cls-5{fill:url(#Radial_Gradient_1);}.cls-26{fill:url(#New_Gradient_Swatch_copy_2);}.cls-6{fill:url(#linear-gradient-25);opacity:.36;}.cls-7{fill:url(#linear-gradient-33);opacity:.57;}.cls-27{fill:url(#radial-gradient-2);}.cls-8{fill:url(#linear-gradient-31);}.cls-9{fill:url(#linear-gradient-35);}.cls-10{fill:url(#linear-gradient-36);}.cls-28{fill:url(#linear-gradient-8);}.cls-29{fill:url(#linear-gradient-4);}.cls-30{fill:url(#linear-gradient-2);}.cls-31{fill:url(#linear-gradient-6);}.cls-32{fill:url(#linear-gradient-5);}.cls-11{fill:url(#Sfumatura_senza_nome_106-2);}.cls-11,.cls-12{opacity:.6;}.cls-33{opacity:.2;}.cls-34{fill:url(#radial-gradient);}.cls-12{fill:url(#Sfumatura_senza_nome_106);}.cls-35{fill:url(#linear-gradient-18);}.cls-36{fill:url(#linear-gradient-22);}.cls-37{fill:url(#linear-gradient-20);}.cls-38{fill:url(#linear-gradient-21);}.cls-39{fill:url(#linear-gradient-23);}.cls-40{fill:url(#linear-gradient-15);}.cls-41{fill:url(#linear-gradient-19);}.cls-42{fill:url(#linear-gradient-17);}.cls-43{fill:url(#linear-gradient-13);}.cls-44{fill:url(#linear-gradient-12);}.cls-45{fill:url(#linear-gradient-10);}.cls-46{fill:url(#linear-gradient-11);}.cls-47{fill:url(#linear-gradient-27);}.cls-48{fill:url(#linear-gradient-24);}.cls-49{fill:url(#linear-gradient-26);}.cls-50{fill:url(#linear-gradient-28);}.cls-51{fill:url(#linear-gradient-29);}.cls-52{fill:url(#linear-gradient-32);}.cls-13{fill:url(#Radial_Gradient_1-2);}.cls-14{fill:url(#Radial_Gradient_1-5);}.cls-15{fill:url(#Radial_Gradient_1-4);}.cls-20{fill:url(#linear-gradient-16);}.cls-21{fill:url(#linear-gradient-14);}.cls-22{fill:url(#linear-gradient-34);}.cls-23{fill:url(#linear-gradient-37);}.cls-24{fill:url(#linear-gradient-38);}.cls-25{fill:url(#linear-gradient-30);}.cls-53{fill:url(#Sfumatura_senza_nome_67-4);}.cls-54{fill:url(#Sfumatura_senza_nome_67-2);}.cls-55{fill:url(#Sfumatura_senza_nome_67-5);}.cls-56{fill:url(#Sfumatura_senza_nome_67-3);}.cls-57{fill:url(#linear-gradient-9);opacity:.7;}.cls-58{fill:url(#Sfumatura_senza_nome_67);}</style><radialGradient id="New_Gradient_Swatch_copy" cx="-9537.58" cy="552.16" fx="-9537.58" fy="552.16" r="20.57" gradientTransform="translate(9950.95)" gradientUnits="userSpaceOnUse"><stop offset="0" stop-color="#eeeef0"/><stop offset=".51" stop-color="#d1d3d8"/><stop offset=".99" stop-color="#9da7b3"/></radialGradient><linearGradient id="linear-gradient" x1="-9258.99" y1="829.68" x2="-9347.25" y2="711.41" gradientTransform="translate(9950.95)" gradientUnits="userSpaceOnUse"><stop offset=".04" stop-color="#1e1f21"/><stop offset=".24" stop-color="#101011"/><stop offset=".27" stop-color="#0e0e0f"/><stop offset=".35" stop-color="#131314"/><stop offset=".45" stop-color="#222325"/><stop offset=".56" stop-color="#3b3d41"/><stop offset=".69" stop-color="#5d6066"/><stop offset="1" stop-color="#37383c"/></linearGradient><linearGradient id="linear-gradient-2" x1="-9377.09" y1="786.05" x2="-9276.49" y2="786.05" gradientTransform="translate(9950.95)" gradientUnits="userSpaceOnUse"><stop offset=".04" stop-color="#1e1f21"/><stop offset=".31" stop-color="#2c2d30"/><stop offset=".84" stop-color="#505358"/><stop offset="1" stop-color="#5d6066"/></linearGradient><radialGradient id="Radial_Gradient_1" cx="-9316.43" cy="784.35" fx="-9316.43" fy="784.35" r="54.34" gradientTransform="translate(9950.95)" gradientUnits="userSpaceOnUse"><stop offset="0" stop-color="#fff"/><stop offset="1" stop-color="#000"/></radialGradient><linearGradient id="linear-gradient-3" x1="-9363.86" y1="786.88" x2="-9286.39" y2="786.88" gradientTransform="translate(9950.95)" gradientUnits="userSpaceOnUse"><stop offset="0" stop-color="#bcbec0"/><stop offset="1" stop-color="#e6e7e8"/></linearGradient><linearGradient id="linear-gradient-4" x1="-9366.27" y1="787.84" x2="-9288.8" y2="787.84" xlink:href="#linear-gradient-3"/><linearGradient id="linear-gradient-5" x1="-9681.57" y1="592.28" x2="-9769.82" y2="474.02" xlink:href="#linear-gradient"/><linearGradient id="linear-gradient-6" x1="-9799.66" y1="548.65" x2="-9699.07" y2="548.65" xlink:href="#linear-gradient-2"/><radialGradient id="Radial_Gradient_1-2" cx="-9739.01" cy="546.95" fx="-9739.01" fy="546.95" r="54.34" xlink:href="#Radial_Gradient_1"/><linearGradient id="linear-gradient-7" x1="-9786.43" y1="549.48" x2="-9708.96" y2="549.48" xlink:href="#linear-gradient-3"/><linearGradient id="linear-gradient-8" x1="-9788.84" y1="550.45" x2="-9711.37" y2="550.45" xlink:href="#linear-gradient-3"/><radialGradient id="Sfumatura_senza_nome_67" cx="-9168.17" cy="425.46" fx="-9168.17" fy="425.46" r="45.06" gradientTransform="translate(9950.95)" gradientUnits="userSpaceOnUse"><stop offset="0" stop-color="#000"/><stop offset=".51" stop-color="#0d0f1d"/><stop offset=".99" stop-color="#000"/></radialGradient><radialGradient id="Sfumatura_senza_nome_67-2" cx="-9326.72" cy="353.01" fx="-9326.72" fy="353.01" r="607.56" xlink:href="#Sfumatura_senza_nome_67"/><radialGradient id="Radial_Gradient_1-3" cx="-9503.11" cy="589.82" fx="-9503.11" fy="589.82" r="284.26" xlink:href="#Radial_Gradient_1"/><linearGradient id="linear-gradient-9" x1="-9749.66" y1="290.06" x2="-9510.61" y2="290.06" xlink:href="#linear-gradient-2"/><linearGradient id="linear-gradient-10" x1="-9400.92" y1="659.55" x2="-9102.12" y2="273.33" xlink:href="#linear-gradient-2"/><linearGradient id="linear-gradient-11" x1="-9744.44" y1="488.15" x2="-9403.08" y2="488.15" xlink:href="#linear-gradient-2"/><linearGradient id="linear-gradient-12" x1="-9075.71" y1="703.92" x2="-9010.33" y2="742.48" xlink:href="#linear-gradient-2"/><radialGradient id="Radial_Gradient_1-4" cx="-9050.17" cy="719.07" fx="-9050.17" fy="719.07" r="66.34" xlink:href="#Radial_Gradient_1"/><linearGradient id="linear-gradient-13" x1="-9179.3" y1="748.13" x2="-9184.22" y2="791.49" gradientTransform="translate(9950.95)" gradientUnits="userSpaceOnUse"><stop offset="0" stop-color="#cecfd0"/><stop offset="1" stop-color="#fff"/></linearGradient><linearGradient id="linear-gradient-14" x1="-9180.64" y1="782.72" x2="-9181.53" y2="715.66" gradientTransform="translate(9950.95)" gradientUnits="userSpaceOnUse"><stop offset="0" stop-color="#9c9c9c"/><stop offset="0" stop-color="#9c9c9c"/><stop offset=".31" stop-color="#c7c7c7"/><stop offset=".59" stop-color="#e5e5e5"/><stop offset=".83" stop-color="#f8f8f8"/><stop offset="1" stop-color="#fff"/></linearGradient><linearGradient id="linear-gradient-15" x1="-8976.53" y1="664.46" x2="-8947.93" y2="663.22" xlink:href="#linear-gradient-13"/><linearGradient id="linear-gradient-16" x1="-8958.92" y1="613.43" x2="-8975.66" y2="689.83" xlink:href="#linear-gradient-14"/><radialGradient id="New_Gradient_Swatch_copy_2" cx="-9824.98" cy="345.77" fx="-9824.98" fy="345.77" r="28.12" gradientTransform="translate(9950.95)" gradientUnits="userSpaceOnUse"><stop offset=".12" stop-color="#f03224"/><stop offset=".16" stop-color="#e62b1e"/><stop offset=".28" stop-color="#cf1a11"/><stop offset=".4" stop-color="#c01008"/><stop offset=".49" stop-color="#bc0d06"/><stop offset=".78" stop-color="#a60906"/></radialGradient><linearGradient id="linear-gradient-17" x1="-9188.16" y1="772.7" x2="-9152.27" y2="772.7" xlink:href="#linear-gradient-3"/><linearGradient id="linear-gradient-18" x1="12601.18" y1="775.3" x2="12617.23" y2="775.3" gradientTransform="translate(13403.27) rotate(-180) scale(1 -1)" gradientUnits="userSpaceOnUse"><stop offset="0" stop-color="#bcbec0"/><stop offset=".69" stop-color="#e8e9ea"/><stop offset="1" stop-color="#fff"/></linearGradient><linearGradient id="linear-gradient-19" x1="-9211.01" y1="772.2" x2="-9174.82" y2="772.2" xlink:href="#linear-gradient-3"/><linearGradient id="linear-gradient-20" x1="12623.7" y1="774.82" x2="12639.88" y2="774.82" xlink:href="#linear-gradient-18"/><radialGradient id="radial-gradient" cx="-9208.64" cy="759.63" fx="-9208.64" fy="759.63" r="13.96" gradientTransform="translate(9950.95)" gradientUnits="userSpaceOnUse"><stop offset=".16" stop-color="#f90"/><stop offset=".34" stop-color="#fc9500"/><stop offset=".52" stop-color="#f58900"/><stop offset=".69" stop-color="#ea7500"/><stop offset=".87" stop-color="#da5a00"/><stop offset=".99" stop-color="#cc4100"/></radialGradient><radialGradient id="radial-gradient-2" cx="12649.11" cy="761.93" fx="12649.11" fy="761.93" r="8.21" gradientTransform="translate(13403.27) rotate(-180) scale(1 -1)" xlink:href="#radial-gradient"/><linearGradient id="linear-gradient-21" x1="-8976.05" y1="666.92" x2="-8958.87" y2="666.92" xlink:href="#linear-gradient-3"/><linearGradient id="linear-gradient-22" x1="12408.16" y1="667.76" x2="12422.43" y2="667.76" xlink:href="#linear-gradient-18"/><linearGradient id="linear-gradient-23" x1="-8968.39" y1="650.74" x2="-8954.15" y2="650.74" xlink:href="#linear-gradient-3"/><linearGradient id="linear-gradient-24" x1="12404.14" y1="650.58" x2="12415.11" y2="650.58" xlink:href="#linear-gradient-18"/><linearGradient id="linear-gradient-25" x1="-9542.19" y1="530.63" x2="-9570.73" y2="578.67" gradientTransform="translate(9950.95)" gradientUnits="userSpaceOnUse"><stop offset="0" stop-color="#9c9c9c"/><stop offset=".01" stop-color="#989898"/><stop offset=".26" stop-color="#626262"/><stop offset=".49" stop-color="#383838"/><stop offset=".7" stop-color="#191919"/><stop offset=".88" stop-color="#060606"/><stop offset="1" stop-color="#000"/></linearGradient><linearGradient id="linear-gradient-26" x1="-9840.16" y1="516.35" x2="-9813.34" y2="459.12" xlink:href="#linear-gradient-14"/><linearGradient id="linear-gradient-27" x1="-9176.85" y1="872.76" x2="-9150.03" y2="815.54" xlink:href="#linear-gradient-14"/><linearGradient id="linear-gradient-28" x1="-9563.75" y1="672.61" x2="-9532.15" y2="617.88" xlink:href="#linear-gradient-14"/><radialGradient id="Sfumatura_senza_nome_67-3" cx="-9082.89" cy="739.53" fx="-9082.89" fy="739.53" r="128.62" xlink:href="#Sfumatura_senza_nome_67"/><linearGradient id="linear-gradient-29" x1="-9241.97" y1="733.04" x2="-8945.74" y2="733.04" xlink:href="#linear-gradient-2"/><linearGradient id="linear-gradient-30" x1="-9084.88" y1="857.29" x2="-9097.19" y2="774.57" xlink:href="#linear-gradient-14"/><radialGradient id="Sfumatura_senza_nome_67-4" cx="-9097.64" cy="777.25" fx="-9097.64" fy="777.25" r="121.72" xlink:href="#Sfumatura_senza_nome_67"/><linearGradient id="linear-gradient-31" x1="-9149.8" y1="295.85" x2="-9311.63" y2="522.06" xlink:href="#linear-gradient-25"/><linearGradient id="linear-gradient-32" x1="-9179.9" y1="787.35" x2="-8950.08" y2="787.35" xlink:href="#linear-gradient-2"/><linearGradient id="Sfumatura_senza_nome_106" x1="-8869.57" y1="681.18" x2="-9276.53" y2="590.74" gradientTransform="translate(9950.95)" gradientUnits="userSpaceOnUse"><stop offset="0" stop-color="#d1e2d4"/><stop offset=".02" stop-color="#cbdbce"/><stop offset=".23" stop-color="#8e9990"/><stop offset=".42" stop-color="#5b625c"/><stop offset=".6" stop-color="#333834"/><stop offset=".77" stop-color="#171917"/><stop offset=".9" stop-color="#060606"/><stop offset="1" stop-color="#000"/></linearGradient><radialGradient id="Radial_Gradient_1-5" cx="-9192.98" cy="755.42" fx="-9192.98" fy="755.42" r="29.85" xlink:href="#Radial_Gradient_1"/><linearGradient id="Sfumatura_senza_nome_106-2" x1="-9294.05" y1="505.03" x2="-9653.48" y2="142.92" xlink:href="#Sfumatura_senza_nome_106"/><linearGradient id="linear-gradient-33" x1="-9448.99" y1="465.86" x2="-9679.22" y2="745.27" xlink:href="#linear-gradient-25"/><linearGradient id="linear-gradient-34" x1="-9401.06" y1="605.94" x2="-9481.53" y2="631.09" gradientTransform="translate(9950.95)" gradientUnits="userSpaceOnUse"><stop offset="0" stop-color="#696969"/><stop offset=".24" stop-color="#9c9c9c"/><stop offset=".48" stop-color="#c6c6c6"/><stop offset=".69" stop-color="#e5e5e5"/><stop offset=".87" stop-color="#f8f8f8"/><stop offset="1" stop-color="#fff"/></linearGradient><radialGradient id="Sfumatura_senza_nome_67-5" cx="-9434.62" cy="573.88" fx="-9434.62" fy="573.88" r="44.58" xlink:href="#Sfumatura_senza_nome_67"/><linearGradient id="linear-gradient-35" x1="-9435.29" y1="571.02" x2="-9431.71" y2="603.65" xlink:href="#linear-gradient-25"/><linearGradient id="linear-gradient-36" x1="-9542.58" y1="292.13" x2="-9662.73" y2="460.06" xlink:href="#linear-gradient-25"/><linearGradient id="linear-gradient-37" x1="-9538.61" y1="559.66" x2="-9517.39" y2="559.66" xlink:href="#linear-gradient-14"/><linearGradient id="linear-gradient-38" x1="-9680.32" y1="481.87" x2="-9659.11" y2="481.87" xlink:href="#linear-gradient-14"/></defs><g class="cls-2"><g id="_Layer_"><path class="cls-33" d="m126.42,566.16l485.7,277.16c82.89,47.3,184.66,47.06,267.32-.64l113.37-65.42c11.5-6.64,11.51-23.23.03-29.88L385.37,395.41c-5.36-3.11-11.98-3.1-17.34.02l-241.75,140.82c-11.49,6.69-11.41,23.31.13,29.9Z"/><path class="cls-16" d="m146.44,522.47l57.56-32.74-25.86-33.87s-42.25,40.91-40.91,44.26c1.34,3.35,9.21,22.35,9.21,22.35Z"/><path class="cls-16" d="m569.94,766.07l86.99-50.7s-59.68-30.85-62.36-30.85-38.89,23.47-38.89,23.47l14.27,58.07Z"/><path class="cls-1" d="m703.58,798.55c0,15.57-5.37,26.6-14.11,31.94-.26.16-27.6,15.98-27.86,16.13-9.09,5.08-3.28-6.45-17.08-14.42-27.78-16.04-50.3-54.88-50.3-86.76,0-15.76-14.57-15.89-5.65-21.15.25-.15,29.33-16.24,29.59-16.38,9.06-4.91,21.45-4,35.11,3.88,27.78,16.04,50.3,54.88,50.3,86.76Z"/><path class="cls-30" d="m674.45,815.09c0,31.88-22.52,44.72-50.3,28.68-27.78-16.04-50.3-54.88-50.3-86.76s22.52-44.72,50.3-28.68c27.78,16.04,50.3,54.88,50.3,86.76Z"/><path class="cls-5" d="m626.57,727.12c-13.32-7.69-25.41-8.72-34.41-4.23,8.39-2.35,18.79-.59,30.07,5.91,27.78,16.04,50.3,54.88,50.3,86.76,0,16.6-6.11,28.02-15.89,32.9,12.28-3.43,20.23-15.65,20.23-34.59,0-31.88-22.52-70.72-50.3-86.76Z"/><path class="cls-18" d="m625.82,742.43c-21.39-12.35-38.73-2.46-38.73,22.08s17.34,54.46,38.73,66.81c21.39,12.35,38.73,2.46,38.73-22.08s-17.34-54.46-38.73-66.81Zm14.79,48.94l12.02-1.02c1.8-.15,4.13,2.25,4.67,4.87.74,3.57,1.14,7.1,1.14,10.5s-.4,6.48-1.14,9.18c-.55,1.99-2.87,1.7-4.67-.53l-12.02-14.9c-1.03-1.28-1.69-2.94-1.63-4.27.01-.23.01-.47.01-.71s0-.48-.01-.73c-.06-1.4.6-2.3,1.63-2.39Zm7.67-12.15l-12.01,1.02c-1.03.09-2.32-.65-3.32-1.97-.35-.45-.7-.9-1.07-1.33-1.07-1.26-1.72-2.93-1.72-4.32v-15.88c0-2.41,1.99-3.01,4.02-1.22,5.69,5.01,10.77,11.39,14.79,18.37,1.47,2.54,1.1,5.17-.7,5.33Zm-26.8-27.48v15.88c0,1.39-.64,2.32-1.72,2.34-.37,0-.72.04-1.07.09-1,.16-2.29-.59-3.32-1.87l-12.01-14.89c-1.8-2.23-2.16-5.29-.7-6.13,4.02-2.33,9.1-2.84,14.79-1.28,2.03.56,4.02,3.46,4.02,5.87Zm-22.47,7.66l12.02,14.9c1.03,1.28,1.69,2.94,1.63,4.27-.01.23-.02.47-.02.71s0,.49.02.73c.06,1.4-.6,2.3-1.63,2.39l-12.02,1.02c-1.8.15-4.13-2.25-4.67-4.86-.74-3.57-1.14-7.1-1.14-10.51s.4-6.48,1.14-9.18c.55-1.99,2.87-1.7,4.67.53Zm4.35,35.15l12.01-1.02c1.03-.09,2.32.65,3.32,1.97.35.46.7.9,1.07,1.33,1.07,1.26,1.72,2.93,1.72,4.32v15.88c0,2.41-1.99,3.01-4.02,1.22-5.69-5.01-10.77-11.39-14.79-18.37-1.47-2.54-1.1-5.17.7-5.33Zm26.8,27.48v-15.88c0-1.39.64-2.32,1.72-2.34.37,0,.72-.04,1.07-.09,1-.16,2.29.59,3.32,1.87l12.01,14.89c1.8,2.24,2.16,5.29.7,6.13-4.02,2.33-9.1,2.84-14.79,1.28-2.03-.56-4.02-3.46-4.02-5.87Z"/><path class="cls-29" d="m623.41,743.39c-21.39-12.35-38.74-2.46-38.74,22.08s17.34,54.46,38.74,66.81c21.39,12.35,38.73,2.46,38.73-22.08s-17.34-54.46-38.73-66.81Zm14.79,48.94l12.02-1.02c1.8-.15,4.13,2.25,4.67,4.87.74,3.57,1.14,7.1,1.14,10.51,0,3.41-.4,6.48-1.14,9.18-.55,1.99-2.87,1.7-4.67-.53l-12.02-14.9c-1.03-1.28-1.69-2.94-1.63-4.27,0-.23.01-.47.01-.71s0-.49-.01-.73c-.06-1.4.6-2.3,1.63-2.39Zm7.67-12.15l-12.01,1.02c-1.03.09-2.32-.65-3.32-1.97-.35-.46-.7-.9-1.07-1.33-1.07-1.26-1.72-2.93-1.72-4.32v-15.88c0-2.41,1.99-3.01,4.02-1.22,5.69,5.01,10.77,11.39,14.79,18.37,1.47,2.54,1.1,5.17-.7,5.33Zm-26.8-27.48v15.88c0,1.39-.64,2.32-1.72,2.34-.37,0-.72.04-1.07.09-1,.16-2.29-.59-3.32-1.87l-12.01-14.89c-1.8-2.23-2.16-5.29-.7-6.14,4.02-2.33,9.1-2.84,14.79-1.28,2.03.56,4.02,3.46,4.02,5.87Zm-22.47,7.66l12.02,14.9c1.03,1.28,1.69,2.94,1.63,4.27,0,.23-.01.47-.01.71s0,.48.01.73c.06,1.4-.6,2.3-1.63,2.39l-12.02,1.02c-1.8.15-4.13-2.25-4.67-4.87-.74-3.57-1.14-7.1-1.14-10.5s.4-6.48,1.14-9.18c.55-1.99,2.87-1.7,4.67.53Zm4.35,35.15l12.01-1.02c1.03-.09,2.32.65,3.32,1.97.35.46.7.9,1.07,1.33,1.07,1.26,1.72,2.93,1.72,4.32v15.88c0,2.41-1.99,3.01-4.02,1.22-5.69-5.01-10.77-11.39-14.79-18.37-1.47-2.54-1.1-5.17.7-5.33Zm26.8,27.48v-15.88c0-1.39.64-2.32,1.72-2.34.37,0,.72-.04,1.07-.09,1-.16,2.29.59,3.32,1.87l12.01,14.89c1.8,2.23,2.16,5.29.7,6.13-4.02,2.33-9.1,2.84-14.79,1.28-2.03-.56-4.02-3.46-4.02-5.87Z"/><path class="cls-32" d="m281.01,561.16c0,15.57-5.37,26.6-14.11,31.94-.26.16-27.6,15.98-27.86,16.13-9.09,5.08-3.28-6.45-17.08-14.42-27.78-16.04-50.3-54.88-50.3-86.76,0-15.76-14.57-15.89-5.65-21.15.25-.15,29.33-16.24,29.59-16.38,9.06-4.91,21.45-4,35.11,3.88,27.78,16.04,50.3,54.88,50.3,86.76Z"/><path class="cls-31" d="m251.88,577.69c0,31.88-22.52,44.72-50.3,28.68-27.78-16.04-50.3-54.88-50.3-86.76s22.52-44.72,50.3-28.68c27.78,16.04,50.3,54.88,50.3,86.76Z"/><path class="cls-13" d="m204,489.73c-13.32-7.69-25.41-8.72-34.41-4.23,8.39-2.35,18.79-.59,30.07,5.91,27.78,16.04,50.3,54.88,50.3,86.76,0,16.6-6.11,28.02-15.89,32.9,12.28-3.43,20.23-15.65,20.23-34.59,0-31.88-22.52-70.72-50.3-86.76Z"/><path class="cls-17" d="m203.25,505.03c-21.39-12.35-38.73-2.46-38.73,22.08s17.34,54.46,38.73,66.81c21.39,12.35,38.74,2.46,38.74-22.08s-17.34-54.46-38.74-66.81Zm14.79,48.94l12.02-1.02c1.8-.15,4.13,2.25,4.67,4.87.74,3.57,1.14,7.1,1.14,10.5s-.4,6.48-1.14,9.18c-.55,1.99-2.87,1.7-4.67-.53l-12.02-14.9c-1.03-1.28-1.69-2.94-1.63-4.27,0-.23.01-.47.01-.71s0-.48-.01-.73c-.06-1.4.6-2.3,1.63-2.39Zm7.67-12.15l-12.01,1.02c-1.03.09-2.32-.65-3.32-1.97-.35-.46-.7-.9-1.07-1.33-1.07-1.26-1.72-2.93-1.72-4.32v-15.88c0-2.41,1.99-3.01,4.02-1.22,5.69,5.01,10.77,11.39,14.79,18.37,1.47,2.54,1.1,5.17-.7,5.33Zm-26.8-27.48v15.88c0,1.39-.64,2.32-1.72,2.34-.37,0-.72.04-1.07.09-1,.16-2.29-.59-3.32-1.87l-12.01-14.89c-1.8-2.23-2.16-5.29-.7-6.13,4.02-2.33,9.1-2.84,14.79-1.28,2.03.56,4.02,3.46,4.02,5.87Zm-22.47,7.66l12.02,14.9c1.03,1.28,1.69,2.94,1.63,4.27,0,.23-.01.47-.01.71s0,.49.01.73c.06,1.4-.6,2.3-1.63,2.39l-12.02,1.02c-1.8.15-4.13-2.25-4.67-4.86-.74-3.57-1.14-7.1-1.14-10.51s.4-6.48,1.14-9.18c.55-1.99,2.87-1.7,4.67.53Zm4.35,35.15l12.01-1.02c1.03-.09,2.32.65,3.32,1.97.35.46.7.9,1.07,1.33,1.07,1.26,1.72,2.93,1.72,4.32v15.88c0,2.41-1.99,3.01-4.02,1.22-5.69-5.01-10.77-11.39-14.79-18.37-1.47-2.54-1.1-5.17.7-5.33Zm26.8,27.48v-15.88c0-1.39.64-2.32,1.72-2.34.37,0,.72-.04,1.07-.09,1-.16,2.29.59,3.32,1.87l12.01,14.89c1.8,2.23,2.16,5.29.7,6.14-4.02,2.33-9.1,2.84-14.79,1.28-2.03-.56-4.02-3.46-4.02-5.87Z"/><path class="cls-28" d="m200.84,506c-21.39-12.35-38.73-2.46-38.73,22.08s17.34,54.46,38.73,66.81c21.39,12.35,38.74,2.46,38.74-22.08s-17.34-54.46-38.74-66.81Zm14.79,48.94l12.02-1.02c1.8-.15,4.13,2.25,4.67,4.86.74,3.57,1.14,7.1,1.14,10.51s-.4,6.48-1.14,9.18c-.55,1.99-2.87,1.7-4.67-.53l-12.02-14.9c-1.03-1.28-1.69-2.94-1.63-4.27,0-.23.01-.47.01-.71s0-.49-.01-.73c-.06-1.4.6-2.3,1.63-2.39Zm7.67-12.15l-12.01,1.02c-1.03.09-2.32-.65-3.32-1.97-.35-.46-.7-.9-1.07-1.33-1.07-1.26-1.72-2.93-1.72-4.32v-15.88c0-2.41,1.99-3.01,4.02-1.22,5.69,5.01,10.77,11.39,14.79,18.37,1.47,2.54,1.1,5.17-.7,5.33Zm-26.8-27.48v15.88c0,1.39-.64,2.32-1.72,2.34-.37,0-.72.04-1.07.09-1,.16-2.29-.59-3.32-1.87l-12.01-14.89c-1.8-2.24-2.16-5.29-.7-6.13,4.02-2.33,9.1-2.84,14.79-1.28,2.03.56,4.02,3.46,4.02,5.87Zm-22.47,7.66l12.02,14.9c1.03,1.28,1.69,2.94,1.63,4.27,0,.23-.01.47-.01.71s0,.48.01.73c.06,1.4-.6,2.3-1.63,2.39l-12.02,1.02c-1.8.15-4.13-2.25-4.67-4.87-.74-3.57-1.14-7.1-1.14-10.5s.4-6.48,1.14-9.18c.55-1.99,2.87-1.7,4.67.53Zm4.35,35.15l12.01-1.02c1.03-.09,2.32.65,3.32,1.97.35.46.7.9,1.07,1.33,1.07,1.26,1.72,2.93,1.72,4.32v15.88c0,2.41-1.99,3.01-4.02,1.22-5.69-5.01-10.77-11.39-14.79-18.37-1.47-2.54-1.1-5.17.7-5.33Zm26.8,27.48v-15.88c0-1.39.64-2.32,1.72-2.34.37,0,.72-.04,1.07-.09,1-.16,2.29.59,3.32,1.87l12.01,14.89c1.8,2.23,2.16,5.29.7,6.13-4.02,2.33-9.1,2.84-14.79,1.28-2.03-.56-4.02-3.46-4.02-5.87Z"/><path class="cls-58" d="m789.03,439.77s10.31-28.67,20.29-17.03c9.98,11.65,5.31,54.58,5.31,54.58l-25.6-37.55Z"/><path class="cls-54" d="m988.87,628.87c-16.09-30.18-184.07-178.28-272.93-248.11-88.86-69.84-210.29-122.14-238.95-131.88-28.66-9.74-107.46-15.94-147.3-14.98-46.05,1.12-182.13,89.82-200.06,104.83,0,0-25.48,100.59-25.48,111.32s21.08,55.19,42.29,72.42c-.1-1.64-.16-3.27-.16-4.88,0-37.03,26.16-51.95,58.44-33.32,32.27,18.63,58.44,63.76,58.44,100.79,0,2.03-.09,3.99-.25,5.88,89.34,51.3,213.51,122,307.04,175.12-1.5-6.8-2.32-13.55-2.32-20.04,0-37.03,26.16-51.95,58.44-33.32,32.27,18.63,58.44,63.76,58.44,100.79,0,6.07-.72,11.54-2.03,16.37,7.18,4.06,12.58,7.11,15.88,8.96,47.42,26.66,144.13-12.39,237.56-64.45,91.17-50.81,69.07-115.34,52.98-145.52Z"/><path class="cls-19" d="m609.99,633.56c-42.92-43.59-71.75-114-108.63-170.33-36.88-56.32-170.33-111.99-197.82-116.01-25.17-3.68-125.5.59-173.54-8.79-.12.1-.25.2-.36.3,0,0-25.48,100.59-25.48,111.32s21.08,55.19,42.29,72.42c-.1-1.64-.16-3.27-.16-4.88,0-37.03,26.16-51.95,58.44-33.32,32.27,18.63,58.44,63.76,58.44,100.79,0,2.03-.09,3.99-.25,5.88,89.34,51.3,213.51,122,307.04,175.12-1.5-6.8-2.32-13.55-2.32-20.04,0-37.03,26.16-51.95,58.44-33.32,32.27,18.63,58.44,63.76,58.44,100.79,0,6.07-.72,11.54-2.03,16.37,7.18,4.06,12.58,7.11,15.88,8.96,13.77,7.74,31.71,9.91,52.5,7.86,2.45-27.57,3.49-67.37-8.75-81.71-19.45-22.8-89.19-87.85-132.1-131.43Z"/><path class="cls-4" d="m748.74,761.9c-19.45-22.8-89.19-87.85-132.1-131.43-42.92-43.59-77.05-117.69-113.93-174.01-36.88-56.32-165.03-108.3-192.53-112.33-25.17-3.68-125.5.59-173.54-8.79-.12.1,133.87,7.26,156.55,10.58,27.49,4.02,161.46,54.66,198.34,110.98,36.88,56.32,65.72,126.74,108.63,170.33,42.92,43.59,112.14,113.66,131.59,136.46,12.07,14.15,11.22,53.06,8.84,80.57,5.39.13,11.01-.07,16.89-.65,2.45-27.57,3.49-67.37-8.75-81.71Z"/><path class="cls-57" d="m298.62,332.7l141.72-80.69s-63.03-18.55-124.73,2.24c-61.69,20.79-116.9,62.59-114.22,73.32,2.68,10.73,81.81,9.16,97.23,5.14Z"/><path d="m336.22,253.86c14.94-5.04,29.96-7.96,44.28-9.46-19.73-.08-42.4,2.26-64.9,9.84-61.69,20.79-116.9,62.59-114.22,73.32.54,2.15,4.17,3.79,9.7,5.04,1.95-13.8,60.25-56.87,125.14-78.73Z"/><path d="m530.09,469.68c5.03-20.45,142.94-94.29,156.35-94.96,13.41-.67,148.87,104.61,144.17,130.09-4.69,25.48-157.59,124.06-208.29,103.54-56.18-22.73-96.48-121.37-92.23-138.67Z"/><path class="cls-45" d="m535.77,471.5c4.89-19.88,138.96-91.66,152-92.32,13.04-.65,144.73,101.7,140.16,126.47-4.56,24.77-153.2,120.61-202.5,100.66-54.62-22.1-93.8-117.99-89.66-134.81Z"/><path d="m809.29,470.77c2.85,4.94,4.22,9.08,3.66,12.13-4.82,26.14-158.03,125.47-214.91,110.13,7.57,6.52,15.68,11.83,24.29,15.32,50.71,20.52,203.6-78.06,208.29-103.54,1.26-6.82-7.53-19.36-21.32-34.05Z"/><path d="m557.68,612.77l-361-210.34s80.69-52.53,142.39-31.07c61.69,21.46,154.23,86.5,171,125.4,16.76,38.89,47.61,116.01,47.61,116.01Z"/><path class="cls-46" d="m547.86,604.73l-341.36-198.9s76.3-49.67,134.64-29.38c58.34,20.29,145.84,81.8,161.7,118.58,15.85,36.78,45.02,109.7,45.02,109.7Z"/><path class="cls-44" d="m809.37,746.89s18.66,33.86,28.16,34.2c9.5.34,34.37-8.43,83.99-37.26,31.72-18.43,45.77-31.14,48.9-41.2,3.13-10.06-4.81-45.6-4.81-45.6,0,0-18.78,22.13-69.74,50.96-40.32,22.81-86.5,38.89-86.5,38.89Z"/><path class="cls-15" d="m965.62,657.03s-.96,1.13-3,3.18c2.12,10.75,5.74,31.71,3.45,39.06-3.13,10.06-17.18,22.77-48.9,41.2-49.62,28.83-74.49,37.6-83.99,37.26-.86-.03-1.8-.34-2.79-.88,2.62,2.52,5.1,4.16,7.15,4.23,9.5.34,34.37-8.43,83.99-37.26,31.72-18.43,45.77-31.14,48.9-41.2,3.13-10.06-4.81-45.6-4.81-45.6Z"/><path class="cls-43" d="m796.19,749.13l24.14,38s-30.4,7.15-50.52,6.03c-20.12-1.12-36.21-14.53-42.47-25.26-6.26-10.73-7.6-30.4-7.6-30.4,0,0,24.59,11.18,43.36,13.86,18.78,2.68,33.08-2.24,33.08-2.24Z"/><path class="cls-21" d="m796.19,749.13l24.14,38s-34.86-4.58-61.91-18.39c-27.05-13.8-38.68-31.24-38.68-31.24,0,0,24.59,11.18,43.36,13.86,18.78,2.68,33.08-2.24,33.08-2.24Z"/><path class="cls-40" d="m973.98,654.51l4.66,42.09s22.8-18.33,24.14-33.53c1.34-15.2-10.89-31.68-10.89-31.68,0,0-4.01,11.73-17.9,23.12Z"/><path class="cls-20" d="m973.98,654.51l4.66,42.09s11.12-24.36,12.46-39.56c1.34-15.2.78-25.65.78-25.65,0,0-4.01,11.73-17.9,23.12Z"/><path class="cls-26" d="m138.12,330.24s-11.18,4.92-14.75,11.18c-3.58,6.26-8.94,60.8-8.94,60.8,0,0,31.14-51.2,33.53-56.33,2.39-5.13-9.84-15.65-9.84-15.65Z"/><path class="cls-42" d="m798.67,765.62l-9.53,20.17s-29.03-17.95-26.15-24.16c2.88-6.21,35.68,3.99,35.68,3.99Z"/><path class="cls-35" d="m786.04,779.93c0,5.08,3.59,7.13,8.02,4.57,4.43-2.56,8.02-8.75,8.02-13.84s-3.59-7.13-8.02-4.57c-4.43,2.56-8.02,8.75-8.02,13.84Z"/><path class="cls-41" d="m776.13,765.05l-9.61,20.34s-29.28-18.11-26.38-24.36c2.91-6.26,35.99,4.02,35.99,4.02Z"/><path class="cls-37" d="m763.38,779.49c0,5.13,3.62,7.19,8.09,4.61,4.47-2.58,8.09-8.83,8.09-13.96,0-5.13-3.62-7.19-8.09-4.61-4.47,2.58-8.09,8.83-8.09,13.96Z"/><path class="cls-34" d="m758.26,753.33l-8.47,17.93s-25.81-15.96-23.25-21.48c2.56-5.52,31.73,3.55,31.73,3.55Z"/><path class="cls-27" d="m747.03,766.05c0,4.52,3.19,6.34,7.13,4.07,3.94-2.27,7.13-7.78,7.13-12.3s-3.19-6.34-7.13-4.07c-3.94,2.27-7.13,7.78-7.13,12.3Z"/><path class="cls-38" d="m992.07,659.15l-8.47,17.93s-10.87-12.36-8.31-17.87c2.56-5.52,16.78-.06,16.78-.06Z"/><path class="cls-36" d="m980.84,671.88c0,4.52,3.19,6.34,7.13,4.07,3.94-2.27,7.13-7.78,7.13-12.3s-3.19-6.34-7.13-4.07c-3.94,2.27-7.13,7.78-7.13,12.3Z"/><path class="cls-39" d="m996.79,643.96l-6.52,13.8s-9.42-6.7-7.44-10.94c1.97-4.24,13.96-2.85,13.96-2.85Z"/><path class="cls-48" d="m988.15,653.75c0,3.48,2.46,4.88,5.49,3.13,3.03-1.75,5.49-5.99,5.49-9.47s-2.46-4.88-5.49-3.13c-3.03,1.75-5.49,5.99-5.49,9.47Z"/><polygon class="cls-6" points="197.6 406.43 562.84 616.05 627.88 684.45 621.18 691.16 564.85 671.71 154.01 436.78 197.6 406.43"/><g class="cls-3"><path class="cls-49" d="m146.44,522.47c-.1-1.64-.16-3.27-.16-4.88,0-22.12,9.34-36.35,23.74-40.25-27.17-15.82-49.32-28.72-64.33-37.47-.96,4.96-1.54,8.58-1.54,10.18,0,10.3,21.08,55.19,42.29,72.42Z"/><path class="cls-47" d="m997.67,712.23c-16.13,15.25-38.72,35.45-61.55,52.1-42.92,31.29-149.76,65.14-189.55,45.6-7.25-3.56-33.84-18.52-72.47-40.6,6.55,14.62,10.41,30,10.41,44.19,0,6.07-.72,11.54-2.03,16.37,7.18,4.06,12.58,7.11,15.88,8.96,47.42,26.66,144.13-12.39,237.56-64.45,35.17-19.6,53.47-41.24,61.78-62.16Z"/><path class="cls-50" d="m569.94,766.07c-1.5-6.8-2.32-13.55-2.32-20.04,0-14.08,3.79-24.96,10.26-32.02-104.29-60.18-236.65-137.05-338.09-196.07,14.18,20.42,23.36,45.19,23.36,67.11,0,2.03-.09,3.99-.25,5.88,89.34,51.3,213.51,122,307.04,175.12Z"/></g><path class="cls-56" d="m709.91,771.7s43.59,26.39,61.69,26.82c28.16.67,84.52-13.15,141.31-48.16,87.58-53.99,90.71-88.64,90.71-88.64,0,0,6.69,41.89,4.02,61.69-2.66,19.8-20.14,45.13-96.56,85.16-73.6,38.56-133.45,46.27-162.28,42.92-28.83-3.35-50.46-12.66-50.46-12.66l11.57-67.14Z"/><path class="cls-51" d="m774.73,804.34c28.16.67,84.52-13.15,141.31-48.16,67.25-41.46,84.69-71.49,89.17-83.21-.87-6.74-1.59-11.25-1.59-11.25,0,0-3.13,34.65-90.71,88.64-56.79,35.01-113.14,48.83-141.31,48.16-18.1-.43-61.69-26.82-61.69-26.82l-.93,5.38c19.24,10.11,53.1,26.95,65.75,27.25Z"/><path class="cls-25" d="m1007.64,723.42c.77-5.71.76-13.27.35-21.12-15.74,15.38-43.61,41.41-71.88,62.03-42.92,31.29-149.76,65.14-189.55,45.6-4.94-2.43-18.88-10.16-39.48-21.82l-8.74,50.74s21.63,9.31,50.46,12.66c28.83,3.35,88.68-4.36,162.28-42.92,76.43-40.04,93.9-65.36,96.56-85.16Z"/><path class="cls-53" d="m1007.64,723.42c.77-5.71.76-13.27.35-21.12-15.74,15.38-43.61,41.41-71.88,62.03-42.92,31.29-149.76,65.14-189.55,45.6-4.94-2.43-18.88-10.16-39.48-21.82l-8.74,50.74s21.63,9.31,50.46,12.66c28.83,3.35,88.68-4.36,162.28-42.92,76.43-40.04,93.9-65.36,96.56-85.16Z"/><path d="m515.95,588.46l41.73,24.32s-17.23-43.06-32.93-81.06l-8.81,56.74Z"/><path d="m304.03,366.26c-53.4,1.08-107.34,36.17-107.34,36.17l69.65,40.58c1.62-8.57,3.87-19.94,6.35-30.97,3.94-17.55,23.65-38.25,31.34-45.79Z"/><path class="cls-8" d="m549.55,450.08c99.17,29.3,203.06,28.51,264.21,25.58-35.89-40.34-117.1-101.45-127.33-100.94-10.5.52-97.26,45.87-136.88,75.36Z"/><path class="cls-52" d="m901.24,807.24c67.5-33.53,95.68-62.04,98.81-71.88,3.13-9.84-2.95-.72-16.09,9.39-17.43,13.41-44.22,29.59-88.09,52.65-74.04,38.94-122.49,36.66-124.73,41.13-2.24,4.47,31.55,17.65,130.09-31.29Z"/><path class="cls-12" d="m848.22,508.57s129.67,103.07,111.05,129.67c-18.62,26.6-142.97,109.06-192.18,93.76-49.21-15.29-124.35-103.74-124.35-103.74,0,0,87.78-20.61,144.3-59.18,56.52-38.57,61.18-60.51,61.18-60.51Z"/><path class="cls-14" d="m796.19,749.13s-12.41,36.24-56.54,20.04c-11.66-4.28-19.91-31.67-19.91-31.67,0,0,24.59,11.18,43.36,13.86,18.78,2.68,33.08-2.24,33.08-2.24Z"/><path class="cls-11" d="m525.73,446.62s141.49-79.13,142.83-83.82c1.34-4.69-183.07-105.95-207.88-105.95-24.81,0-130.76,72.42-125.4,78.46,5.36,6.03,89.19,36.21,114,55.66,24.81,19.45,56.33,45.6,76.45,55.66Z"/><polygon points="370.59 503.69 408.14 525.15 421.11 414.28 400.54 401.32 370.59 503.69"/><path class="cls-7" d="m558.55,614.9c-.42,1.03-10.25,25.65-12.26,62.56-1.5,27.51-1.89,48.9-1.98,57.89l-156.59-90.24c-.34-11.43-1.38-58.14,2.76-109,4.74-58.17,24.51-124.85,24.71-125.52l-5.14-1.53c-.2.67-20.13,67.88-24.92,126.62-3.84,47.16-3.26,90.76-2.87,106.29l-89.61-51.64c-2.55-5.52-18.29-39.7-35.39-77.88-18.06-40.31-3.29-73.91-3.14-74.24l-4.88-2.22c-.66,1.45-15.97,36.04,3.12,78.65,18.61,41.53,35.61,78.34,35.78,78.71l.36.78,261.14,150.5v-4.64c0-.25.02-25.83,2.01-62.22,1.96-35.95,11.78-60.59,11.88-60.83l-4.97-2.01Z"/><path class="cls-22" d="m554.33,610.76s-46.61,37.89-70.75,25.15c-24.14-12.74,46.27-41.24,46.27-41.24l24.48,16.09Z"/><path class="cls-55" d="m525.74,574.63c-7.07-.65-40.95,2.16-46.58,17.07-5.63,14.91,74.52,23.17,77.1,19.97,2.58-3.21-15.03-35.6-30.52-37.04Z"/><path class="cls-9" d="m524.48,577.19c-5.55-.54-32.1,1.11-36.36,11.64-4.26,10.53,58.69,17.24,60.68,14.99,1.99-2.25-12.16-25.44-24.33-26.62Z"/><path class="cls-10" d="m214.11,401.28c78.16,20.82,157.82,23.91,216.03,22.78-29.31-20.3-62.22-38.3-88.99-47.61-47.27-16.44-106.33,13.05-127.04,24.83Z"/><path class="cls-23" d="m426.24,565.78c0,6.72-4.75,9.43-10.61,6.05-5.86-3.38-10.61-11.57-10.61-18.29s4.75-9.43,10.61-6.05c5.86,3.38,10.61,11.57,10.61,18.29Z"/><path class="Graphic_Style_2" d="m426.08,565.32c2.31,4.69-1.89,5.43-9.39,1.67-7.5-3.76-15.45-10.61-17.77-15.3-2.31-4.69,1.89-5.43,9.39-1.67,7.5,3.76,15.45,10.61,17.77,15.3Z"/><path class="cls-24" d="m284.53,488c0,6.72-4.75,9.43-10.61,6.05-5.86-3.38-10.61-11.57-10.61-18.29,0-6.72,4.75-9.43,10.61-6.05,5.86,3.38,10.61,11.57,10.61,18.29Z"/><path class="Graphic_Style_2" d="m284.36,487.53c2.31,4.69-1.89,5.43-9.39,1.67-7.5-3.76-15.45-10.61-17.77-15.3-2.31-4.69,1.89-5.43,9.39-1.67,7.5,3.76,15.45,10.61,17.77,15.3Z"/></g></g></svg>