<?xml version="1.0" encoding="UTF-8"?><svg id="Livello_2" xmlns="http://www.w3.org/2000/svg" viewBox="0 0 221.39 73.88"><defs><style>.cls-1{fill:orange;}.cls-2{fill:#fff;}</style></defs><g id="Livello_1-2"><path class="cls-2" d="m0,47.84c0-7.02,2.51-12.99,7.53-17.91,5.02-4.92,11.14-7.38,18.36-7.38s13.4,2.48,18.46,7.43c4.99,4.96,7.48,11.04,7.48,18.26s-2.51,13.39-7.53,18.31c-5.06,4.89-11.26,7.33-18.61,7.33s-13.39-2.49-18.31-7.48C2.46,61.47,0,55.29,0,47.84Zm11.47.2c0,4.86,1.3,8.7,3.89,11.52,2.66,2.86,6.17,4.29,10.53,4.29s7.9-1.41,10.53-4.24c2.63-2.83,3.94-6.6,3.94-11.32s-1.31-8.5-3.94-11.32c-2.66-2.86-6.17-4.29-10.53-4.29s-7.77,1.43-10.43,4.29c-2.66,2.86-3.99,6.55-3.99,11.07Z"/><path class="cls-2" d="m58.86,23.89h8.64c.71,0,1.29.58,1.29,1.29h0c0,1.12,1.32,1.7,2.15.96,1.21-1.06,2.32-1.85,3.33-2.36,1.63-.83,3.56-1.25,5.79-1.25,2.62,0,5.35.76,8.17,2.27.62.33.87,1.1.55,1.73l-3.94,7.88c-.34.68-1.18.91-1.83.52-1.72-1.01-3.4-1.52-5.05-1.52-6.12,0-9.18,4.62-9.18,13.87v23.9c0,.71-.58,1.29-1.29,1.29h-8.64c-.71,0-1.29-.58-1.29-1.29V25.19c0-.71.58-1.29,1.29-1.29Z"/><path class="cls-2" d="m104.96,1.78v24.78c0,1.11,1.29,1.69,2.14.98,3.95-3.32,8.33-4.98,13.13-4.98,6.55,0,12,2.44,16.36,7.33,4.36,4.86,6.53,10.91,6.53,18.16s-2.2,13.67-6.58,18.56c-4.36,4.86-9.86,7.28-16.51,7.28-4.75,0-9.07-1.54-12.96-4.62-.85-.68-2.11-.09-2.11,1v.93c0,.71-.58,1.29-1.29,1.29h-8.64c-.71,0-1.29-.58-1.29-1.29V1.78c0-.71.58-1.29,1.29-1.29h8.64c.71,0,1.29.58,1.29,1.29Zm26.69,46.76c0-4.66-1.26-8.45-3.79-11.37-2.56-2.99-5.77-4.49-9.63-4.49-4.12,0-7.48,1.45-10.08,4.34-2.56,2.86-3.84,6.58-3.84,11.17s1.26,8.5,3.79,11.32c2.53,2.89,5.85,4.34,9.98,4.34,3.89,0,7.12-1.45,9.68-4.34,2.59-2.93,3.89-6.58,3.89-10.97Z"/><path class="cls-2" d="m163.11,25.19v46c0,.71-.58,1.29-1.29,1.29h-8.64c-.71,0-1.29-.58-1.29-1.29V25.19c0-.71.58-1.29,1.29-1.29h8.64c.71,0,1.29.58,1.29,1.29Z"/><path class="cls-2" d="m204.62,28.99h14.47c1.2,0,2.18.98,2.18,2.18v6.33c0,1.21-.98,2.18-2.18,2.18h-14.47c-1.21,0-2.18-.98-2.18-2.18v-6.33c0-1.2.98-2.18,2.18-2.18Z" transform="translate(37.77 159.86) rotate(-45)"/><path class="cls-1" d="m205.5,48.26h0l-7.57-7.57h0l-15.25-15.25c-.85-.85-2.23-.85-3.09,0l-4.48,4.48c-.85.85-.85,2.23,0,3.09l15.25,15.25-15.25,15.25c-.85.85-.85,2.23,0,3.09l4.48,4.48c.85.85,2.23.85,3.09,0l15.25-15.25h0l7.57-7.57Z"/><rect class="cls-2" x="206.52" y="52.81" width="10.7" height="18.78" rx="2.18" ry="2.18" transform="translate(18.07 168.03) rotate(-45)"/><circle class="cls-2" cx="157.5" cy="7.58" r="7.58"/></g></svg>