<?xml version="1.0" encoding="UTF-8"?><svg id="Livello_2" xmlns="http://www.w3.org/2000/svg" viewBox="0 0 274.98 72.89"><defs><style>.cls-1{fill:#ddd;}</style></defs><g id="Livello_1-2"><path class="cls-1" d="m0,0h10.86v54.28H0V0Z"/><path class="cls-1" d="m52.89,54.36h-10.86v-3.18c-2.71,2.87-6.28,4.34-10.55,4.34-8.3,0-13.18-5.74-13.18-15.04v-24.04h10.86v22.1c0,4.89,2.02,7.29,5.97,7.29,4.27,0,6.9-3.18,6.9-8.69v-20.7h10.86v37.92Z"/><path class="cls-1" d="m94.84,27.99l-9.46,3.57c-.62-3.49-3.41-5.89-7.44-5.89-4.89,0-8.37,4.03-8.37,9.23,0,6.13,3.49,10.16,8.76,10.16,4.34,0,7.91-2.87,8.3-7.13l10.16,2.56c-1.09,8.69-8.76,15.04-18.22,15.04-11.86,0-19.85-8.53-19.85-20.08s7.83-20.24,19.31-20.24c8.76,0,15.04,5.04,16.83,12.8Z"/><path class="cls-1" d="m109.18,55.68c-.08,4.96,2.87,7.75,7.29,7.75,5.2,0,8.53-3.72,8.53-9.62v-4.65c-2.71,3.02-6.2,4.5-10.62,4.5-8.3,0-13.18-5.74-13.18-15.04l-.08-22.26h10.86v20.32c0,4.89,2.02,7.29,5.97,7.29,4.34,0,7.06-3.26,7.06-8.76v-18.84h10.86v36.99c0,11.24-7.99,19.54-19.39,19.54-10.62,0-17.99-6.2-17.53-15.74l10.24-1.47Z"/><path class="cls-1" d="m151.76,16.36l6.44,22.88,6.82-22.88h9.54l6.67,22.88,6.44-22.88h10.78l-11.63,37.92h-10.62l-6.44-21.79-6.44,21.79h-10.62l-11.63-37.92h10.7Z"/><path class="cls-1" d="m222.56,29.93v-1.32c0-2.71-2.17-4.65-5.82-4.65-4.11,0-6.44,2.56-6.2,6.67l-9.69-1.01c-.47-9.23,6.82-14.42,15.66-14.42,10.31,0,16.21,5.35,16.21,13.73v25.36h-10.08v-3.72c-1.55,2.71-4.73,4.89-9.15,4.89-8.22,0-12.79-5.58-12.79-11.32,0-7.21,4.89-11.24,14.58-12.87l7.29-1.32Zm0,9v-1.71l-5.89,1.09c-3.64.7-5.74,1.94-5.74,4.5,0,2.17,1.86,3.64,4.65,3.64,4.11,0,6.98-2.95,6.98-7.52Z"/><path class="cls-1" d="m248.3,55.68c-.08,4.96,2.87,7.75,7.29,7.75,5.2,0,8.53-3.72,8.53-9.62v-4.65c-2.71,3.02-6.2,4.5-10.62,4.5-8.3,0-13.18-5.74-13.18-15.04l-.08-22.26h10.86v20.32c0,4.89,2.02,7.29,5.97,7.29,4.34,0,7.06-3.26,7.06-8.76v-18.84h10.86v36.99c0,11.24-7.99,19.54-19.39,19.54-10.62,0-17.99-6.2-17.53-15.74l10.24-1.47Z"/></g></svg>