<?xml version="1.0" encoding="UTF-8"?><svg xmlns="http://www.w3.org/2000/svg" xmlns:xlink="http://www.w3.org/1999/xlink" viewBox="0 0 1112.42 1112.42"><defs><style>.Graphic_Style_2{fill:url(#New_Gradient_Swatch_copy);}.cls-1{fill:url(#linear-gradient);}.cls-2{isolation:isolate;}.cls-2,.cls-3{fill:none;}.cls-4{fill:#4c5157;}.cls-5{fill:url(#Radial_Gradient_1-3);opacity:.3;}.cls-5,.cls-6,.cls-7,.cls-8,.cls-9,.cls-10,.cls-11,.cls-12,.cls-13,.cls-14,.cls-15,.cls-16{mix-blend-mode:screen;}.cls-17{fill:url(#linear-gradient-7);}.cls-17,.cls-18,.cls-3,.cls-19,.cls-20,.cls-21,.cls-22,.cls-23{mix-blend-mode:multiply;}.cls-18{fill:url(#linear-gradient-3);}.cls-6{fill:url(#Radial_Gradient_1);}.cls-7{fill:url(#linear-gradient-13);opacity:.5;}.cls-24{fill:url(#radial-gradient-2);}.cls-8{fill:url(#linear-gradient-10);}.cls-9{fill:url(#linear-gradient-33);}.cls-10{fill:url(#linear-gradient-35);}.cls-25{fill:url(#linear-gradient-8);}.cls-26{fill:url(#linear-gradient-9);}.cls-27{fill:url(#linear-gradient-4);}.cls-28{fill:url(#linear-gradient-2);}.cls-29{fill:url(#linear-gradient-6);}.cls-30{fill:url(#linear-gradient-5);}.cls-11{fill:url(#Sfumatura_senza_nome_106-2);}.cls-11,.cls-12{opacity:.6;}.cls-31{opacity:.2;}.cls-32{fill:url(#radial-gradient);}.cls-12{fill:url(#Sfumatura_senza_nome_106);}.cls-33{fill:url(#linear-gradient-14);}.cls-34{fill:url(#linear-gradient-22);}.cls-35{fill:url(#linear-gradient-23);}.cls-36{fill:url(#linear-gradient-19);}.cls-37{fill:url(#linear-gradient-16);}.cls-38{fill:url(#linear-gradient-17);}.cls-39{fill:url(#linear-gradient-12);}.cls-40{fill:url(#linear-gradient-11);}.cls-41{fill:url(#linear-gradient-27);}.cls-42{fill:url(#linear-gradient-24);}.cls-43{fill:url(#linear-gradient-26);}.cls-44{fill:url(#linear-gradient-25);}.cls-45{fill:url(#linear-gradient-28);}.cls-46{fill:url(#linear-gradient-29);}.cls-47{fill:url(#linear-gradient-30);}.cls-48{fill:url(#linear-gradient-32);}.cls-49{fill:url(#linear-gradient-31);}.cls-13{fill:url(#Radial_Gradient_1-2);}.cls-14{fill:url(#Radial_Gradient_1-5);}.cls-15{fill:url(#Radial_Gradient_1-6);}.cls-16{fill:url(#Radial_Gradient_1-4);}.cls-19{fill:url(#linear-gradient-15);}.cls-20{fill:url(#linear-gradient-21);}.cls-21{fill:url(#linear-gradient-20);}.cls-22{fill:url(#linear-gradient-18);}.cls-23{fill:url(#linear-gradient-34);}.cls-50{fill:url(#Sfumatura_senza_nome_76-2);}.cls-51{fill:url(#Sfumatura_senza_nome_76);}</style><radialGradient id="New_Gradient_Swatch_copy" cx="431.27" cy="584.89" fx="431.27" fy="584.89" r="23.75" gradientUnits="userSpaceOnUse"><stop offset="0" stop-color="#eeeef0"/><stop offset=".51" stop-color="#d1d3d8"/><stop offset=".99" stop-color="#9da7b3"/></radialGradient><radialGradient id="radial-gradient" cx="104.66" cy="-4855.48" fx="104.66" fy="-4855.48" r="27.75" gradientTransform="translate(0 9886.8) scale(1 1.96)" gradientUnits="userSpaceOnUse"><stop offset=".12" stop-color="#f03224"/><stop offset=".16" stop-color="#e62b1e"/><stop offset=".28" stop-color="#cf1a11"/><stop offset=".4" stop-color="#c01008"/><stop offset=".49" stop-color="#bc0d06"/><stop offset=".78" stop-color="#a60906"/></radialGradient><linearGradient id="linear-gradient" x1="301.65" y1="672.36" x2="207.56" y2="546.28" gradientUnits="userSpaceOnUse"><stop offset=".04" stop-color="#1e1f21"/><stop offset=".24" stop-color="#101011"/><stop offset=".27" stop-color="#0e0e0f"/><stop offset=".35" stop-color="#131314"/><stop offset=".45" stop-color="#222325"/><stop offset=".56" stop-color="#3b3d41"/><stop offset=".69" stop-color="#5d6066"/><stop offset="1" stop-color="#37383c"/></linearGradient><linearGradient id="linear-gradient-2" x1="175.75" y1="625.85" x2="282.99" y2="625.85" gradientUnits="userSpaceOnUse"><stop offset=".04" stop-color="#1e1f21"/><stop offset=".31" stop-color="#2c2d30"/><stop offset=".84" stop-color="#505358"/><stop offset="1" stop-color="#5d6066"/></linearGradient><radialGradient id="Radial_Gradient_1" cx="240.41" cy="624.04" fx="240.41" fy="624.04" r="57.93" gradientUnits="userSpaceOnUse"><stop offset="0" stop-color="#fff"/><stop offset="1" stop-color="#000"/></radialGradient><linearGradient id="linear-gradient-3" x1="189.86" y1="626.73" x2="272.44" y2="626.73" gradientUnits="userSpaceOnUse"><stop offset="0" stop-color="#bcbec0"/><stop offset="1" stop-color="#e6e7e8"/></linearGradient><linearGradient id="linear-gradient-4" x1="187.29" y1="627.76" x2="269.87" y2="627.76" xlink:href="#linear-gradient-3"/><linearGradient id="linear-gradient-5" x1="750.17" y1="910.58" x2="656.08" y2="784.51" xlink:href="#linear-gradient"/><linearGradient id="linear-gradient-6" x1="624.28" y1="864.07" x2="731.52" y2="864.07" xlink:href="#linear-gradient-2"/><radialGradient id="Radial_Gradient_1-2" cx="688.94" cy="862.26" fx="688.94" fy="862.26" r="57.93" xlink:href="#Radial_Gradient_1"/><linearGradient id="linear-gradient-7" x1="638.38" y1="864.95" x2="720.97" y2="864.95" xlink:href="#linear-gradient-3"/><linearGradient id="linear-gradient-8" x1="635.81" y1="865.98" x2="718.4" y2="865.98" xlink:href="#linear-gradient-3"/><radialGradient id="Sfumatura_senza_nome_76" cx="591.4" cy="320.43" fx="591.4" fy="320.43" r="703.95" gradientUnits="userSpaceOnUse"><stop offset="0" stop-color="#000"/><stop offset=".51" stop-color="#000"/><stop offset=".99" stop-color="#000"/></radialGradient><linearGradient id="linear-gradient-9" x1="472.38" y1="850.24" x2="907.87" y2="429.2" xlink:href="#linear-gradient-2"/><linearGradient id="linear-gradient-10" x1="647.83" y1="365.8" x2="806.75" y2="636.17" gradientUnits="userSpaceOnUse"><stop offset="0" stop-color="#9c9c9c"/><stop offset=".01" stop-color="#989898"/><stop offset=".26" stop-color="#626262"/><stop offset=".49" stop-color="#383838"/><stop offset=".7" stop-color="#191919"/><stop offset=".88" stop-color="#060606"/><stop offset="1" stop-color="#000"/></linearGradient><linearGradient id="Sfumatura_senza_nome_106" x1="779.42" y1="583.92" x2="124.3" y2="64.61" gradientUnits="userSpaceOnUse"><stop offset="0" stop-color="#d1e2d4"/><stop offset=".02" stop-color="#cbdbce"/><stop offset=".23" stop-color="#8e9990"/><stop offset=".42" stop-color="#5b625c"/><stop offset=".6" stop-color="#333834"/><stop offset=".77" stop-color="#171917"/><stop offset=".9" stop-color="#060606"/><stop offset="1" stop-color="#000"/></linearGradient><linearGradient id="linear-gradient-11" x1="419.05" y1="746.82" x2="454.65" y2="687.99" gradientUnits="userSpaceOnUse"><stop offset="0" stop-color="#9c9c9c"/><stop offset="0" stop-color="#9c9c9c"/><stop offset=".31" stop-color="#c7c7c7"/><stop offset=".59" stop-color="#e5e5e5"/><stop offset=".83" stop-color="#f8f8f8"/><stop offset="1" stop-color="#fff"/></linearGradient><linearGradient id="linear-gradient-12" x1="119.24" y1="565.35" x2="154.85" y2="506.53" xlink:href="#linear-gradient-11"/><linearGradient id="linear-gradient-13" x1="397.3" y1="585.6" x2="422.73" y2="543.58" xlink:href="#linear-gradient-10"/><radialGradient id="Radial_Gradient_1-3" cx="711.66" cy="483.79" fx="711.66" fy="483.79" r="326.88" xlink:href="#Radial_Gradient_1"/><linearGradient id="linear-gradient-14" x1="795.61" y1="807.83" x2="830.44" y2="827.17" gradientUnits="userSpaceOnUse"><stop offset="0" stop-color="#cecfd0"/><stop offset="1" stop-color="#fff"/></linearGradient><linearGradient id="linear-gradient-15" x1="834.13" y1="845.48" x2="754.16" y2="748.48" gradientUnits="userSpaceOnUse"><stop offset="0" stop-color="#b4b4b4"/><stop offset=".18" stop-color="#c7c7c7"/><stop offset=".51" stop-color="#e5e5e5"/><stop offset=".8" stop-color="#f8f8f8"/><stop offset="1" stop-color="#fff"/></linearGradient><linearGradient id="linear-gradient-16" x1="858.55" y1="777.6" x2="985.13" y2="777.6" xlink:href="#linear-gradient-2"/><radialGradient id="Radial_Gradient_1-4" cx="923.89" cy="778.8" fx="923.89" fy="778.8" r="52.34" xlink:href="#Radial_Gradient_1"/><linearGradient id="linear-gradient-17" x1="989.92" y1="710.24" x2="1019.72" y2="723.39" xlink:href="#linear-gradient-14"/><linearGradient id="linear-gradient-18" x1="987.99" y1="709.38" x2="1007.53" y2="718.01" xlink:href="#linear-gradient-15"/><linearGradient id="linear-gradient-19" x1="739.2" y1="856.55" x2="1029.68" y2="839.01" gradientUnits="userSpaceOnUse"><stop offset=".06" stop-color="#2d2f32"/><stop offset=".14" stop-color="#43454a"/><stop offset=".22" stop-color="#5d6066"/><stop offset=".48" stop-color="#1e1f21"/><stop offset="1" stop-color="#46484d"/></linearGradient><linearGradient id="linear-gradient-20" x1="919.55" y1="910.27" x2="874.15" y2="811.2" xlink:href="#linear-gradient-11"/><linearGradient id="linear-gradient-21" x1="834.8" y1="989.83" x2="861.12" y2="897.47" xlink:href="#linear-gradient-11"/><radialGradient id="Radial_Gradient_1-5" cx="903.91" cy="762.85" fx="903.91" fy="762.85" r="138.85" xlink:href="#Radial_Gradient_1"/><linearGradient id="linear-gradient-22" x1="793.22" y1="812.94" x2="834.64" y2="812.94" xlink:href="#linear-gradient-3"/><linearGradient id="linear-gradient-23" x1="-923.03" y1="815.93" x2="-904.51" y2="815.93" gradientTransform="translate(-84.45) rotate(-180) scale(1 -1)" gradientUnits="userSpaceOnUse"><stop offset="0" stop-color="#bcbec0"/><stop offset=".69" stop-color="#e8e9ea"/><stop offset="1" stop-color="#fff"/></linearGradient><linearGradient id="linear-gradient-24" x1="989.5" y1="724.2" x2="1008.89" y2="724.2" xlink:href="#linear-gradient-3"/><linearGradient id="linear-gradient-25" x1="-1096.78" y1="724.58" x2="-1080.6" y2="724.58" xlink:href="#linear-gradient-23"/><linearGradient id="linear-gradient-26" x1="995.71" y1="703.45" x2="1007.57" y2="703.45" xlink:href="#linear-gradient-3"/><linearGradient id="linear-gradient-27" x1="-1094.13" y1="703.68" x2="-1084.23" y2="703.68" xlink:href="#linear-gradient-23"/><linearGradient id="linear-gradient-28" x1="769.77" y1="816.99" x2="811.18" y2="816.99" xlink:href="#linear-gradient-3"/><linearGradient id="linear-gradient-29" x1="-899.57" y1="819.98" x2="-881.05" y2="819.98" xlink:href="#linear-gradient-23"/><linearGradient id="linear-gradient-30" x1="746.94" y1="814.67" x2="777.75" y2="814.67" gradientTransform="matrix(1,0,0,1,0,0)" xlink:href="#linear-gradient-23"/><linearGradient id="linear-gradient-31" x1="-865.13" y1="816.9" x2="-851.35" y2="816.9" xlink:href="#linear-gradient-23"/><linearGradient id="linear-gradient-32" x1="295.79" y1="590.15" x2="666.33" y2="502.12" xlink:href="#linear-gradient-2"/><radialGradient id="Sfumatura_senza_nome_76-2" cx="572.11" cy="663.03" fx="572.11" fy="663.03" r="36.43" xlink:href="#Sfumatura_senza_nome_76"/><linearGradient id="linear-gradient-33" x1="629.9" y1="531.82" x2="215.23" y2="797.01" xlink:href="#linear-gradient-10"/><linearGradient id="Sfumatura_senza_nome_106-2" x1="1130.74" y1="684.94" x2="756.14" y2="678.75" xlink:href="#Sfumatura_senza_nome_106"/><linearGradient id="linear-gradient-34" x1="430.09" y1="593.55" x2="454.57" y2="593.55" xlink:href="#linear-gradient-11"/><radialGradient id="radial-gradient-2" cx="762.4" cy="801.53" fx="762.4" fy="801.53" r="15.8" gradientUnits="userSpaceOnUse"><stop offset=".16" stop-color="#f90"/><stop offset=".34" stop-color="#fc9500"/><stop offset=".52" stop-color="#f58900"/><stop offset=".69" stop-color="#ea7500"/><stop offset=".87" stop-color="#da5a00"/><stop offset=".99" stop-color="#cc4100"/></radialGradient><radialGradient id="Radial_Gradient_1-6" cx="797.6" cy="800.58" fx="797.6" fy="800.58" r="35.56" xlink:href="#Radial_Gradient_1"/><linearGradient id="linear-gradient-35" x1="573.32" y1="608.1" x2="576.9" y2="640.73" xlink:href="#linear-gradient-10"/></defs><g class="cls-2"><g id="_Layer_"><path class="cls-32" d="m101.57,375.62l22.44,16.25s-7.74,35.6-10.06,35.6h-13.16l.77-51.86Z"/><path class="cls-31" d="m93.61,606.56l533.65,309.08c85.15,48.59,189.69,48.34,274.6-.66l116.46-67.2c11.81-6.82,11.83-23.86.03-30.7L359.62,431.16c-5.51-3.19-12.31-3.18-17.81.02l-248.33,144.66c-11.8,6.87-11.72,23.95.14,30.72Z"/><polygon class="cls-4" points="616.85 841.55 715.58 788.92 631.22 766.47 609.55 805.94 616.85 841.55"/><polygon class="cls-4" points="167.17 585.37 265.91 532.73 181.54 510.29 159.87 549.76 167.17 585.37"/><path d="m852.57,501.14s9.78-35.66,23.86-29.16c14.08,6.51,3.53,59.2,3.53,59.2l-27.39-30.04Z"/><path class="cls-1" d="m314.04,639.18c0,16.6-5.73,28.36-15.04,34.05-.28.17-29.42,17.04-29.7,17.2-9.69,5.42-3.49-6.88-18.21-15.37-29.61-17.1-53.62-58.5-53.62-92.49,0-16.8-15.53-16.94-6.02-22.55.26-.16,31.27-17.31,31.54-17.46,9.66-5.23,22.87-4.27,37.43,4.14,29.61,17.1,53.62,58.5,53.62,92.48Z"/><path class="cls-28" d="m282.99,656.8c0,33.98-24.01,47.67-53.62,30.57-29.61-17.1-53.62-58.5-53.62-92.49s24.01-47.67,53.62-30.57c29.61,17.1,53.62,58.5,53.62,92.49Z"/><path class="cls-6" d="m231.94,563.03c-14.2-8.2-27.09-9.3-36.68-4.5,8.94-2.5,20.04-.63,32.05,6.31,29.61,17.1,53.62,58.5,53.62,92.48,0,17.69-6.52,29.87-16.93,35.08,13.09-3.66,21.57-16.69,21.57-36.88,0-33.98-24.01-75.39-53.62-92.48Z"/><path class="cls-18" d="m231.15,579.35c-22.81-13.17-41.29-2.63-41.29,23.54s18.49,58.06,41.29,71.22c22.81,13.17,41.29,2.63,41.29-23.54s-18.49-58.06-41.29-71.22Zm15.77,52.17l12.81-1.09c1.92-.16,4.4,2.4,4.98,5.19.79,3.8,1.22,7.57,1.22,11.2s-.43,6.91-1.22,9.79c-.58,2.12-3.06,1.81-4.98-.57l-12.81-15.88c-1.1-1.36-1.8-3.13-1.74-4.55.01-.25.02-.5.02-.76s0-.52-.02-.78c-.06-1.49.64-2.45,1.74-2.55Zm8.17-12.96l-12.81,1.09c-1.1.09-2.47-.69-3.54-2.1-.37-.49-.75-.96-1.14-1.42-1.14-1.34-1.83-3.13-1.83-4.6v-16.93c0-2.57,2.12-3.21,4.29-1.3,6.07,5.34,11.48,12.14,15.77,19.58,1.56,2.71,1.18,5.52-.75,5.68Zm-28.57-29.3v16.93c0,1.48-.69,2.47-1.83,2.49-.39,0-.77.04-1.14.1-1.07.17-2.44-.63-3.54-1.99l-12.81-15.88c-1.92-2.38-2.31-5.63-.75-6.54,4.29-2.48,9.7-3.03,15.77-1.37,2.17.59,4.29,3.69,4.29,6.26Zm-23.95,8.16l12.81,15.88c1.1,1.37,1.8,3.13,1.74,4.55-.01.25-.02.5-.02.76s0,.52.02.78c.06,1.49-.63,2.45-1.74,2.55l-12.81,1.09c-1.92.16-4.4-2.4-4.98-5.19-.79-3.8-1.22-7.57-1.22-11.2s.43-6.9,1.22-9.79c.58-2.12,3.06-1.81,4.98.57Zm4.64,37.47l12.81-1.09c1.1-.09,2.47.69,3.54,2.09.37.49.75.96,1.14,1.42,1.14,1.34,1.83,3.13,1.83,4.6v16.93c0,2.57-2.12,3.21-4.29,1.3-6.07-5.34-11.48-12.14-15.77-19.58-1.56-2.71-1.18-5.52.75-5.68Zm28.57,29.3v-16.93c0-1.48.69-2.47,1.83-2.49.39,0,.77-.04,1.14-.1,1.07-.17,2.44.63,3.54,1.99l12.81,15.88c1.92,2.38,2.31,5.63.75,6.54-4.29,2.48-9.7,3.03-15.77,1.37-2.17-.59-4.29-3.69-4.29-6.26Z"/><path class="cls-27" d="m228.58,580.38c-22.81-13.17-41.29-2.63-41.29,23.54s18.49,58.06,41.29,71.22c22.81,13.17,41.29,2.63,41.29-23.54s-18.49-58.06-41.29-71.22Zm15.77,52.17l12.81-1.09c1.92-.16,4.4,2.4,4.98,5.19.79,3.8,1.22,7.57,1.22,11.2s-.43,6.91-1.22,9.79c-.58,2.12-3.06,1.81-4.98-.57l-12.81-15.88c-1.1-1.37-1.8-3.13-1.74-4.55.01-.25.02-.5.02-.76s0-.52-.02-.78c-.06-1.49.63-2.45,1.74-2.55Zm8.17-12.96l-12.81,1.09c-1.1.09-2.47-.69-3.54-2.09-.37-.49-.75-.96-1.14-1.42-1.14-1.34-1.83-3.13-1.83-4.6v-16.93c0-2.57,2.12-3.21,4.29-1.3,6.07,5.34,11.48,12.14,15.77,19.58,1.56,2.71,1.18,5.52-.75,5.68Zm-28.57-29.3v16.93c0,1.48-.69,2.47-1.83,2.49-.39,0-.77.04-1.14.1-1.07.17-2.44-.63-3.54-1.99l-12.81-15.88c-1.92-2.38-2.31-5.63-.75-6.54,4.29-2.48,9.7-3.03,15.77-1.37,2.17.59,4.29,3.69,4.29,6.26Zm-23.95,8.16l12.81,15.88c1.1,1.36,1.8,3.13,1.74,4.55-.01.25-.02.5-.02.76s0,.52.02.78c.06,1.49-.64,2.45-1.74,2.55l-12.81,1.09c-1.92.16-4.4-2.4-4.98-5.19-.79-3.8-1.22-7.57-1.22-11.2s.43-6.9,1.22-9.79c.58-2.12,3.06-1.81,4.98.57Zm4.64,37.47l12.81-1.09c1.1-.09,2.47.69,3.54,2.09.37.49.75.96,1.14,1.42,1.14,1.34,1.83,3.13,1.83,4.6v16.93c0,2.57-2.12,3.21-4.29,1.3-6.07-5.34-11.48-12.14-15.77-19.58-1.56-2.71-1.18-5.52.74-5.68Zm28.57,29.3v-16.93c0-1.48.69-2.47,1.83-2.49.39,0,.77-.04,1.14-.1,1.07-.17,2.44.63,3.54,1.99l12.81,15.88c1.92,2.38,2.31,5.63.75,6.54-4.29,2.48-9.7,3.03-15.77,1.37-2.17-.59-4.29-3.69-4.29-6.26Z"/><path class="cls-30" d="m762.57,877.4c0,16.6-5.73,28.36-15.04,34.05-.28.17-29.42,17.04-29.7,17.2-9.69,5.42-3.49-6.88-18.21-15.37-29.61-17.1-53.62-58.5-53.62-92.48,0-16.8-15.53-16.94-6.02-22.55.27-.16,31.27-17.31,31.54-17.46,9.66-5.23,22.87-4.27,37.43,4.14,29.61,17.1,53.62,58.5,53.62,92.49Z"/><path class="cls-29" d="m731.52,895.02c0,33.98-24.01,47.67-53.62,30.57-29.61-17.1-53.62-58.5-53.62-92.48s24.01-47.67,53.62-30.57c29.61,17.1,53.62,58.5,53.62,92.48Z"/><path class="cls-13" d="m680.47,801.25c-14.2-8.2-27.09-9.3-36.69-4.5,8.94-2.5,20.04-.63,32.05,6.3,29.61,17.1,53.62,58.5,53.62,92.48,0,17.69-6.52,29.87-16.93,35.08,13.09-3.66,21.57-16.69,21.57-36.88,0-33.98-24.01-75.39-53.62-92.49Z"/><path class="cls-17" d="m679.68,817.57c-22.81-13.17-41.29-2.63-41.29,23.54s18.49,58.06,41.29,71.22c22.81,13.17,41.29,2.63,41.29-23.54s-18.49-58.06-41.29-71.22Zm15.77,52.17l12.81-1.09c1.92-.16,4.4,2.4,4.98,5.19.79,3.8,1.22,7.57,1.22,11.2s-.43,6.91-1.22,9.79c-.58,2.12-3.06,1.81-4.98-.57l-12.81-15.88c-1.1-1.37-1.8-3.13-1.74-4.55.01-.25.02-.5.02-.76s0-.52-.02-.78c-.06-1.49.63-2.45,1.74-2.55Zm8.17-12.96l-12.81,1.09c-1.1.09-2.47-.69-3.54-2.1-.37-.49-.75-.96-1.14-1.42-1.14-1.34-1.83-3.13-1.83-4.6v-16.93c0-2.57,2.12-3.21,4.29-1.3,6.07,5.34,11.48,12.14,15.77,19.58,1.56,2.71,1.18,5.52-.74,5.68Zm-28.57-29.3v16.93c0,1.48-.69,2.47-1.83,2.49-.39,0-.77.04-1.14.1-1.07.17-2.44-.63-3.54-1.99l-12.81-15.88c-1.92-2.38-2.31-5.63-.74-6.54,4.29-2.49,9.7-3.03,15.77-1.37,2.17.59,4.29,3.69,4.29,6.26Zm-23.95,8.16l12.81,15.88c1.1,1.36,1.8,3.13,1.74,4.55-.01.25-.02.5-.02.76s0,.52.02.78c.06,1.49-.63,2.45-1.74,2.55l-12.81,1.09c-1.92.16-4.4-2.4-4.98-5.19-.79-3.8-1.22-7.57-1.22-11.2s.43-6.91,1.22-9.79c.58-2.12,3.06-1.81,4.98.57Zm4.64,37.47l12.81-1.09c1.1-.09,2.47.69,3.54,2.09.37.49.75.96,1.14,1.42,1.14,1.34,1.83,3.13,1.83,4.6v16.93c0,2.57-2.12,3.21-4.29,1.3-6.07-5.34-11.48-12.14-15.77-19.58-1.56-2.71-1.18-5.52.74-5.68Zm28.57,29.3v-16.93c0-1.48.69-2.47,1.83-2.49.39,0,.77-.04,1.14-.1,1.07-.17,2.44.63,3.54,1.99l12.81,15.88c1.92,2.38,2.31,5.64.74,6.54-4.29,2.48-9.7,3.03-15.77,1.37-2.17-.59-4.29-3.69-4.29-6.26Z"/><path class="cls-25" d="m677.1,818.6c-22.81-13.17-41.29-2.63-41.29,23.54s18.49,58.06,41.29,71.22c22.81,13.17,41.29,2.63,41.29-23.54s-18.49-58.06-41.29-71.22Zm15.77,52.17l12.81-1.09c1.92-.16,4.4,2.4,4.98,5.19.79,3.8,1.22,7.57,1.22,11.2s-.43,6.91-1.22,9.79c-.58,2.12-3.06,1.81-4.98-.57l-12.81-15.88c-1.1-1.37-1.8-3.13-1.74-4.55.01-.25.02-.5.02-.76s0-.52-.02-.78c-.06-1.49.63-2.45,1.74-2.55Zm8.17-12.96l-12.81,1.09c-1.1.09-2.47-.69-3.54-2.09-.37-.49-.75-.96-1.14-1.42-1.14-1.34-1.83-3.13-1.83-4.6v-16.93c0-2.57,2.12-3.21,4.29-1.3,6.07,5.34,11.48,12.14,15.77,19.58,1.56,2.71,1.18,5.52-.74,5.68Zm-28.57-29.3v16.93c0,1.48-.69,2.47-1.83,2.49-.39,0-.77.04-1.14.1-1.07.17-2.44-.63-3.54-1.99l-12.81-15.88c-1.92-2.38-2.31-5.63-.74-6.54,4.29-2.48,9.7-3.03,15.77-1.37,2.17.59,4.29,3.69,4.29,6.26Zm-23.95,8.16l12.81,15.88c1.1,1.36,1.8,3.13,1.74,4.55-.01.25-.02.5-.02.76s0,.52.02.78c.06,1.49-.64,2.45-1.74,2.55l-12.81,1.09c-1.92.16-4.4-2.4-4.98-5.19-.79-3.8-1.22-7.57-1.22-11.2s.43-6.91,1.22-9.79c.58-2.12,3.06-1.81,4.98.57Zm4.64,37.47l12.8-1.09c1.1-.09,2.47.69,3.54,2.09.37.49.75.96,1.14,1.42,1.14,1.34,1.83,3.13,1.83,4.6v16.93c0,2.57-2.12,3.21-4.29,1.3-6.07-5.34-11.48-12.14-15.77-19.58-1.56-2.71-1.18-5.52.75-5.68Zm28.57,29.3v-16.93c0-1.48.69-2.47,1.83-2.49.39,0,.77-.04,1.14-.1,1.07-.17,2.44.63,3.54,1.99l12.81,15.88c1.92,2.38,2.31,5.63.74,6.54-4.29,2.48-9.7,3.03-15.77,1.37-2.17-.59-4.29-3.69-4.29-6.26Z"/><path class="cls-51" d="m1023.62,759.51c2.06-40.25-32.04-103.74-54.18-131.57-22.13-27.84-152.7-186.29-180.08-205.87-24.63-17.62-377.55-218.25-448.05-258.28-7.59-4.31-16.85-4.35-24.48-.11l-166.25,92.25-47.47,112.48v172.34c1.07,4.64,25.86,21.4,65.2,45.46,0-.24-.03-.48-.03-.71,0-40.52,28.62-56.83,63.93-36.45,35.31,20.39,63.93,69.75,63.93,110.27,0,.68-.03,1.34-.05,2.01,103.08,59.17,227.53,128.47,320.75,180.24-1.09-6-1.73-11.94-1.73-17.69,0-40.52,28.62-56.83,63.93-36.45,35.31,20.39,63.93,69.75,63.93,110.27,0,4.84-.42,9.32-1.2,13.44,7.09,4.02,11.43,6.55,12.5,7.3,14.7,10.45,50.57,13.93,84.62,3.61,32.18-9.75,163.23-83.53,172.34-94.42,9.11-10.89,10.32-27.86,12.38-68.11Z"/><path d="m617.83,518.23c-10.65,5.13-14.42,18.38-8.09,28.36,25.66,40.47,85.52,132.93,101.2,140.17,20.12,9.29,98.29,7.74,149.38-28.64,51.08-36.38,65.01-58.05,54.95-83.59-8.13-20.65-88.1-101.04-118.43-131.08-6.52-6.46-16.6-7.57-24.37-2.68-12.6,7.93-35.63,21.14-73.91,39.08-31.12,14.59-61.62,29.19-80.73,38.38Z"/><path class="cls-26" d="m622.5,521.7c-8.72,4.2-11.81,15.04-6.64,23.22,23.67,37.41,83.83,130.73,99.31,137.88,19.4,8.95,94.78,7.46,144.03-27.61,49.25-35.07,62.69-55.97,52.98-80.6-7.99-20.29-87.92-100.41-115.82-128-5.38-5.32-13.7-6.2-20.07-2.12-11.69,7.49-34.25,20.63-73.07,38.83-31.64,14.83-62.6,29.67-80.73,38.4Z"/><path d="m915.26,574.53c-1.57-3.98-5.81-10.18-11.84-17.81,5.26,23.35-10.87,44.84-58.6,78.83-52.45,37.35-132.72,38.94-153.38,29.41-.77-.36-1.65-.93-2.62-1.67,9.72,12.57,17.69,21.43,22.12,23.47,20.12,9.29,98.29,7.74,149.38-28.64,51.08-36.38,65.01-58.05,54.95-83.59Z"/><path class="cls-8" d="m760.3,580.98c51.95,0,99.37-12.59,135.67-33.34-27.68-32.77-76.82-82.09-99.14-104.19-6.52-6.46-16.6-7.57-24.37-2.68-12.6,7.93-35.63,21.14-73.91,39.08-31.12,14.59-61.62,29.19-80.73,38.38-7.15,3.44-11.17,10.54-11.15,17.85,37.81,27.56,92.62,44.9,153.62,44.9Z"/><polygon class="cls-12" points="171.52 257.26 592.55 503.38 757.37 411.22 331.69 166.65 171.52 257.26"/><g class="cls-3"><path class="cls-40" d="m265.47,579.02c18.37,23.49,30.68,53.76,30.68,80.28,0,.68-.03,1.34-.05,2.01,103.08,59.17,227.53,128.47,320.75,180.24-1.09-6-1.73-11.94-1.73-17.69,0-16.22,4.59-28.54,12.36-36.21l-362.01-208.63Z"/><path class="cls-39" d="m168.32,586.19c0-.24-.03-.48-.03-.71,0-26.43,12.18-42.55,30.45-44.92l-95.62-55.11v55.28c1.07,4.64,25.86,21.4,65.2,45.46Z"/></g><polygon class="cls-7" points="124.27 374.85 652.89 682.88 697.78 750.99 125.82 421.28 124.27 374.85"/><path class="cls-5" d="m555.63,503.7s174.92,259.28,191.17,306.49c9.41,27.35,17.53,74.41,22.69,109.19,5.38,2.1,11.95,3.67,19.3,4.58-5.08-35.2-13.64-86.78-23.68-115.95-16.25-47.21-191.17-306.49-191.17-306.49L157.54,252.59l-4.42,10.48,402.52,240.63Z"/><path class="cls-33" d="m740.19,794.28l5.26,25.47c.76,3.7,2.82,6.99,5.8,9.3,6.8,5.26,20.49,13.98,38.11,15.59,25.54,2.32,63.46-21.67,63.46-21.67l-19.35-41.02s-39.47,20.12-65.79,13.16c-8.28-2.19-14.42-4.74-18.94-7.21-4.41-2.4-9.59,1.46-8.57,6.38Z"/><path class="cls-19" d="m740.19,794.28s23.36,23.02,31.12,25.98c47.6,18.19,81.52,2.71,81.52,2.71l-19.35-41.02s-39.47,20.12-65.79,13.16c-8.28-2.19-14.42-4.74-18.94-7.21-4.41-2.4-9.59,1.46-8.57,6.38Z"/><path class="cls-37" d="m859.94,810.92h0c3.56,7.98,12.87,11.63,20.88,8.16,14.56-6.31,38.31-17.55,63.33-33.26,12.95-8.13,25.38-15.92,33.48-20.99,5.62-3.52,8.48-10.15,7.18-16.66l-.11-.53c-2.26-11.28-15.32-16.54-24.76-9.97-9.89,6.88-23.45,15.74-40.59,25.64-21.47,12.39-39.66,21.22-51.47,26.58-7.99,3.62-11.52,13.02-7.95,21.02Z"/><path class="cls-16" d="m984.82,748.18l-.11-.53c-.93-4.63-3.69-8.23-7.26-10.43,1.71,1.99,2.97,4.45,3.54,7.29l.11.53c1.3,6.51-1.56,13.14-7.18,16.66-8.1,5.07-20.53,12.85-33.48,20.99-25.02,15.71-48.77,26.94-63.33,33.26-4.88,2.12-10.22,1.56-14.46-.97,4.45,5.01,11.71,6.91,18.18,4.1,14.56-6.31,38.31-17.55,63.33-33.25,12.95-8.13,25.38-15.92,33.48-20.99,5.62-3.52,8.48-10.15,7.18-16.66Z"/><path class="cls-38" d="m985.65,704.67l7.48,45.66s27.36-17.63,25.81-28.47c-1.55-10.84-17.38-45.18-17.38-45.18l-2.58,10.02c-.76,3.4-2.43,6.53-4.84,9.06l-8.49,8.9Z"/><path class="cls-22" d="m985.65,704.67l7.48,45.66s10.36-29.14,8.82-39.98c-1.55-10.84-.39-33.67-.39-33.67l-2.58,10.02c-.76,3.4-2.43,6.53-4.84,9.06l-8.49,8.9Z"/><path class="cls-36" d="m736.74,855.99s38.4,21.85,55.94,21.33c17.54-.52,126.14-55.59,165.93-79.12,47.99-28.38,69.14-45.41,69.14-45.41,0,0-1.55,66.05-13.93,77.4-12.38,11.35-173.88,108.36-203.29,108.36s-67.59-20.12-67.59-20.12l-6.19-62.43Z"/><path class="cls-21" d="m736.74,855.99s38.4,21.85,55.94,21.33c17.54-.52,126.14-55.59,165.93-79.12,47.99-28.38,69.14-45.41,69.14-45.41,0,0-1.55,66.05-13.93,77.4-12.38,11.35-173.88,108.36-203.29,108.36s-67.59-20.12-67.59-20.12l-6.19-62.43Z"/><path class="cls-20" d="m736.74,855.99s38.4,21.85,55.94,21.33c17.54-.52,126.14-55.59,165.93-79.12,47.99-28.38,69.14-45.41,69.14-45.41,0,0-1.55,66.05-13.93,77.4-12.38,11.35-173.88,108.36-203.29,108.36s-67.59-20.12-67.59-20.12l-6.19-62.43Z"/><path d="m853.22,905.58c-13.87.31-22.07-11.93-13.46-12.13.3,0,.59-.02.88-.03,20.57-1.07,119.21-56.64,140.06-69.62,14.72-9.17,26.36-16.95,35.19-23.12-1.16,13.85-5.28,12.91-7.4,16.37-14.15,12.45-136.71,87.48-155.28,88.53Z"/><path class="cls-14" d="m797.01,884.62c17.54-.52,126.14-55.59,165.93-79.12,35.03-20.72,55.7-35.34,64.34-41.75.36-6.62.46-10.95.46-10.95,0,0-21.16,17.03-69.14,45.41-39.79,23.53-148.39,78.61-165.93,79.12-17.54.52-55.94-21.33-55.94-21.33l.19,1.92c18.36,10.74,48.29,27.06,60.09,26.71Z"/><path class="cls-34" d="m834.64,804.76l-11,23.28s-33.51-20.72-30.18-27.88c3.32-7.16,41.18,4.6,41.18,4.6Z"/><path class="cls-35" d="m820.06,821.28c0,5.87,4.15,8.23,9.26,5.28,5.11-2.95,9.26-10.1,9.26-15.97s-4.15-8.23-9.26-5.28c-5.11,2.95-9.26,10.1-9.26,15.97Z"/><path class="cls-42" d="m1008.89,714.82l-9.61,20.34s-12.24-12.35-9.33-18.61c2.91-6.26,18.94-1.73,18.94-1.73Z"/><path class="cls-44" d="m996.15,729.26c0,5.13,3.62,7.19,8.09,4.61,4.47-2.58,8.09-8.83,8.09-13.96s-3.62-7.19-8.09-4.61c-4.47,2.58-8.09,8.83-8.09,13.95Z"/><path class="cls-43" d="m1007.57,697.71l-5.88,12.44s-7.48-7.55-5.71-11.38c1.78-3.83,11.59-1.06,11.59-1.06Z"/><path class="cls-41" d="m999.78,706.54c0,3.14,2.22,4.4,4.95,2.82,2.73-1.58,4.95-5.4,4.95-8.54s-2.22-4.4-4.95-2.82c-2.73,1.58-4.95,5.4-4.95,8.54Z"/><path class="cls-45" d="m811.18,808.81l-11,23.28s-33.51-20.72-30.18-27.88c3.32-7.16,41.18,4.6,41.18,4.6Z"/><path class="cls-46" d="m796.6,825.33c0,5.87,4.15,8.23,9.26,5.28,5.11-2.95,9.26-10.1,9.26-15.97s-4.15-8.23-9.26-5.28c-5.11,2.95-9.26,10.1-9.26,15.97Z"/><path class="cls-47" d="m777.75,808.59l-8.18,17.32s-24.93-15.42-22.46-20.75c2.47-5.33,30.64,3.43,30.64,3.43Z"/><path class="cls-49" d="m766.9,820.88c0,4.37,3.08,6.12,6.89,3.93,3.8-2.2,6.89-7.52,6.89-11.88s-3.08-6.12-6.89-3.93c-3.8,2.2-6.89,7.52-6.89,11.88Z"/><path d="m635.3,663.04l-111.76-168.36c-.95-1.44-2.23-2.63-3.72-3.49l-69.44-39.58c-6.06-3.45-13.73.02-15.14,6.85l-15.56,75.67c-.89,4.31,1.08,8.71,4.88,10.93l207.67,121.24c2.1,1.23,4.42-1.23,3.07-3.25Z"/><path class="cls-48" d="m512.2,493.97c-.86-1.3-2.02-2.39-3.37-3.17l-55.15-31.14c-5.34-3.01-12.06.02-13.34,6.01l-14.67,68.75c-.82,3.84.92,7.77,4.31,9.74l133.66,77.82v-50.53l-51.43-77.48Z"/><path class="cls-50" d="m586.59,633.61s36.12,19.09,26.06,26.83c-10.06,7.74-45.85,43.66-76.04,28.18-30.18-15.48,49.98-55.01,49.98-55.01Z"/><path d="m547.38,614.28c-8.35,7.51-14.37,30.23,10.85,35.9,25.23,5.67,54.39,7.27,56.06,1.43,1.67-5.84-24.33-35.66-28.5-39.83-4.18-4.17-38.41,2.5-38.41,2.5Z"/><polygon class="cls-9" points="579.02 803.38 389.74 695.88 392.93 557.06 422.33 425.54 426.86 426.54 397.51 557.83 394.45 693.22 581.32 799.34 579.02 803.38"/><path class="cls-11" d="m734.96,704.09s82.56,6.71,136.73-37.67c54.18-44.37,55.73-72.75,55.73-72.75,0,0,99.07,98.04-3.1,148.6-97.61,48.31-152.73,24.25-189.36-38.18Z"/><path class="cls-23" d="m446.13,600.61c0,7.76-5.48,10.88-12.24,6.98-6.76-3.9-12.24-13.36-12.24-21.11s5.48-10.88,12.24-6.98c6.76,3.9,12.24,13.36,12.24,21.11Z"/><path class="Graphic_Style_2" d="m445.95,600.08c2.67,5.41-2.18,6.27-10.84,1.93-8.66-4.34-17.84-12.25-20.51-17.66-2.67-5.41,2.18-6.27,10.84-1.93,8.66,4.34,17.84,12.25,20.51,17.66Z"/><path class="cls-24" d="m760.27,802.69c-.77-4.09-3.42-7.52-7.07-9.51-.02,0-.03-.02-.05-.03-3.63-1.98-7.89,1.2-7.05,5.25l4.33,20.96c.63,3.05,2.32,5.75,4.78,7.66.03.02.05.04.08.06,3.92,3.02,9.51-.46,8.59-5.33-1.17-6.16-2.48-13.12-3.6-19.06Z"/><path class="cls-15" d="m740.19,794.28s19.3,23.22,36.92,24.82c25.54,2.32,56.37-37.15,56.37-37.15,0,0-39.47,20.12-65.79,13.16-8.28-2.19-14.42-4.74-18.94-7.21-4.41-2.4-9.59,1.46-8.57,6.38Z"/><path class="cls-10" d="m582.14,614.27c-5.55-.54-32.1,1.11-36.36,11.64-4.26,10.53,58.69,17.24,60.68,14.99,1.99-2.25-12.16-25.44-24.33-26.62Z"/></g></g></svg>