<svg width="140" height="140" viewBox="0 0 140 140" fill="none" xmlns="http://www.w3.org/2000/svg">
<path d="M87.5 52.5L52.5 87.4977M87.5 87.5L52.5 52.5023" stroke="#DC3545" stroke-width="8" stroke-linecap="round" stroke-linejoin="round"/>
<path d="M14.5833 69.9999C14.5833 43.8763 14.5833 30.8144 22.6989 22.6988C30.8145 14.5833 43.8763 14.5833 70 14.5833C96.1234 14.5833 109.185 14.5833 117.301 22.6988C125.417 30.8144 125.417 43.8763 125.417 69.9999C125.417 96.1233 125.417 109.185 117.301 117.301C109.185 125.417 96.1234 125.417 70 125.417C43.8763 125.417 30.8145 125.417 22.6989 117.301C14.5833 109.185 14.5833 96.1233 14.5833 69.9999Z" stroke="#DC3545" stroke-width="8"/>
</svg>
