<svg width="24" height="24" viewBox="0 0 24 24" fill="none" xmlns="http://www.w3.org/2000/svg">
<path d="M16.5 2.5H7.5C4.73858 2.5 2.5 4.73858 2.5 7.5V16.5C2.5 19.2614 4.73858 21.5 7.5 21.5H16.5C19.2614 21.5 21.5 19.2614 21.5 16.5V7.5C21.5 4.73858 19.2614 2.5 16.5 2.5Z" stroke="#141B34" stroke-width="1.5"/>
<path opacity="0.4" d="M15 14.4923C14.5216 15.3957 13.6512 16 12.6568 16C11.147 16 9.92308 14.6071 9.92308 12.8889V11.1111C9.92308 9.39289 11.147 8 12.6568 8C13.6512 8 14.5216 8.60426 15 9.50774M9 12H12.9231" stroke="#141B34" stroke-width="1.5" stroke-linecap="round"/>
</svg>
