<svg width="22" height="20" viewBox="0 0 22 20" fill="none" xmlns="http://www.w3.org/2000/svg">
<path d="M12.4037 5.57471C12.4536 5.93525 12.4213 6.29579 12.3803 6.6534C12.2337 7.96658 11.7032 9.13614 11.0466 10.2617C10.3372 11.4752 9.54288 12.6243 8.53747 13.615C7.89554 14.2452 7.19497 14.7963 6.34785 15.1246C5.57108 15.4265 4.78845 15.4822 4.02047 15.107C2.97989 14.597 2.58417 13.7411 2.68383 12.6829C2.78056 11.6365 3.20852 10.7014 3.70683 9.79566C4.34583 8.6349 5.17244 7.60898 6.06939 6.63874C6.75529 5.89715 7.4881 5.19952 8.25607 4.53999C8.29125 4.50775 8.33815 4.48723 8.35574 4.4374C8.44074 4.41981 8.49643 4.35533 8.55799 4.30256C9.07975 3.85995 9.62495 3.44958 10.176 3.04214C10.3519 2.91317 10.5454 2.80764 10.6978 2.65229C11.2342 2.30641 11.7647 1.94587 12.3187 1.6293C13.1102 1.17789 13.9104 0.738206 14.7898 0.471465C15.4463 0.272143 16.1117 0.0933385 16.8006 0.0288517C17.9613 -0.0796033 19.0517 0.102132 19.9927 0.840798C20.6932 1.38894 21.0626 2.13053 21.1622 3.0099C21.2736 4.00944 21.0039 4.93278 20.5848 5.82387C20.0747 6.91428 19.3771 7.88451 18.6179 8.81077C17.6946 9.94222 16.7126 11.0209 15.7981 12.1612C14.9686 13.1929 14.1859 14.2599 13.4707 15.3708C13.2685 15.6845 13.1453 16.0245 13.1512 16.4026C13.1571 17.0358 13.6905 17.6161 14.3208 17.6425C14.7399 17.663 15.0565 17.4491 15.2998 17.1237C15.5577 16.7778 15.6984 16.3762 15.7952 15.9629C15.9447 15.3357 16.4195 14.9781 17.0644 15.0132C17.6096 15.0425 18.0551 15.4939 18.1255 16.0861C18.1431 16.2297 18.1167 16.3674 18.0844 16.5052C17.891 17.323 17.5773 18.0822 17.0292 18.73C15.4991 20.5415 12.7643 20.3949 11.4394 18.4193C10.6128 17.1882 10.604 15.8955 11.2195 14.5823C11.498 13.9873 11.9025 13.4685 12.2718 12.9291C13.3066 11.4342 14.4703 10.039 15.6574 8.66421C16.4547 7.74088 17.2637 6.82341 17.9174 5.78869C18.2632 5.24348 18.5681 4.67776 18.7469 4.05341C18.8319 3.76029 18.8759 3.4613 18.8026 3.15939C18.7088 2.76368 18.4303 2.55556 18.0639 2.4471C17.5363 2.29175 17.0116 2.35917 16.484 2.4559C15.3115 2.66988 14.2709 3.1975 13.2685 3.81012C12.9108 4.02996 12.5474 4.23808 12.2161 4.49602C12.1751 4.49309 12.1429 4.51068 12.1106 4.53413C11.6915 4.82725 11.2694 5.12037 10.8678 5.43694C10.5893 5.65385 10.3021 5.85611 10.0529 6.10819C9.35235 6.68857 8.68403 7.3012 8.05968 7.96072C7.21549 8.85181 6.41527 9.77808 5.81437 10.8568C5.47435 11.4665 5.16657 12.0908 5.03174 12.7855C4.9907 12.9965 5.02881 13.0317 5.23985 12.9995C5.55643 12.9467 5.8261 12.7914 6.08404 12.6126C6.88133 12.0586 7.49982 11.3316 8.06261 10.5519C8.70162 9.66962 9.25269 8.73163 9.70116 7.73795C9.7891 7.7995 9.82721 7.71743 9.87704 7.67346C10.2141 7.38913 10.5512 7.10188 10.8883 6.81755C11.2254 6.53322 11.5625 6.24889 11.9054 5.97043C12.0667 5.83852 12.2132 5.68024 12.4037 5.57471Z" fill="#FCC219"/>
<path d="M5.75285 4.87681C5.26041 5.12596 4.78848 5.40443 4.35759 5.74738C3.81825 6.1724 3.33167 6.65019 2.89492 7.17488C2.67508 7.43869 2.43472 7.65853 2.07711 7.71715C1.59346 7.7963 1.12739 7.59991 0.866517 7.18954C0.60857 6.78503 0.602707 6.24862 0.907554 5.87049C2.14453 4.35212 3.59548 3.11808 5.47146 2.45269C6.43289 2.11267 7.42071 1.99542 8.43491 2.05991C8.58441 2.0687 8.7339 2.09801 8.88339 2.11853C8.8277 2.27389 8.67821 2.33251 8.56682 2.42924C8.2268 2.72823 7.87798 3.01255 7.5321 3.30274C7.2038 3.57828 6.87844 3.85381 6.55014 4.12935C6.28927 4.34626 6.02546 4.56317 5.76458 4.78008C5.73527 4.80939 5.69716 4.8387 5.75285 4.87681Z" fill="#FCC217"/>
<path d="M12.4067 5.5748C12.2191 5.68033 12.0696 5.83861 11.9054 5.97052C11.5625 6.24898 11.2254 6.53331 10.8883 6.81764C10.5512 7.10196 10.2141 7.38922 9.87704 7.67355C9.82721 7.71459 9.78911 7.79959 9.70117 7.73804C9.82428 7.3775 9.94153 7.01696 10.0177 6.6447C10.0646 6.72091 10.1145 6.66521 10.1496 6.6359C10.3959 6.43365 10.6421 6.22846 10.8854 6.02328C11.2723 5.69498 11.6563 5.36375 12.052 5.04425C12.1311 4.9827 12.1839 4.86838 12.31 4.87424C12.3774 5.10288 12.4008 5.33737 12.4067 5.5748Z" fill="#FCC219"/>
<path d="M5.7531 4.87696C5.69741 4.83885 5.73552 4.80954 5.76483 4.78609C6.02571 4.56918 6.06968 4.39963 6.33055 4.18272C6.65885 3.91012 6.98421 3.63165 7.31251 3.35612C7.65839 3.06593 8.19755 2.71711 8.53757 2.42106C8.64896 2.32433 8.79845 2.26277 8.85414 2.11035C9.05346 2.13087 9.27936 2.17145 9.46988 2.23887C9.46109 2.32094 9.39367 2.35905 9.33798 2.40595C9.00382 2.68441 8.66966 2.96288 8.3355 3.24134C7.99255 3.52567 7.64667 3.80414 7.31251 4.10019C7.17474 4.2233 6.99301 4.3083 6.91973 4.4959C6.52401 4.60143 6.1283 4.70988 5.7531 4.87696Z" fill="#FCC219"/>
<path d="M6.91992 4.49629C6.9932 4.3087 7.17494 4.22369 7.31271 4.10058C7.64393 3.80453 7.99275 3.52606 8.3357 3.24173C8.66986 2.96327 9.00402 2.6848 9.33817 2.40634C9.39387 2.35944 9.46129 2.32133 9.47008 2.23926C9.68406 2.2715 9.88924 2.32719 10.0886 2.4122C10.0622 2.42392 10.0299 2.42686 10.0094 2.44737C9.82183 2.63204 9.61371 2.78739 9.41146 2.95447C8.9278 3.35605 8.44415 3.76056 7.9693 4.17093C7.89015 4.24128 7.76997 4.27938 7.74066 4.4025C7.46513 4.43181 7.19252 4.46405 6.91992 4.49629Z" fill="#FCC219"/>
<path d="M7.74023 4.40241C7.76955 4.27929 7.84556 4.20352 7.9247 4.13317C8.39956 3.7228 8.88614 3.32122 9.36686 2.91671C9.56618 2.74963 9.8214 2.62902 10.009 2.44728C10.0266 2.4297 10.0618 2.42383 10.0881 2.41211C10.2933 2.49125 10.5132 2.52936 10.7008 2.64954C10.5454 2.80782 10.3549 2.91042 10.179 3.03939C9.62794 3.44683 9.08273 3.8572 8.56097 4.29981C8.49942 4.35257 8.44373 4.41413 8.35872 4.43465C8.15354 4.39654 7.94542 4.4112 7.74023 4.40241Z" fill="#FCC219"/>
<path d="M12.3069 4.87454C12.1808 4.86868 12.1251 4.983 12.0489 5.04455C11.6532 5.36406 11.2692 5.69821 10.8823 6.02358C10.639 6.22876 10.3928 6.43395 10.1466 6.6362C10.1114 6.66551 10.0615 6.71828 10.0146 6.645C10.0205 6.46619 10.0791 6.29032 10.0498 6.10565C10.299 5.85357 10.5892 5.65131 10.8647 5.4344C11.2692 5.11783 11.6884 4.82471 12.1075 4.53159C12.1427 4.50814 12.172 4.49055 12.2131 4.49348C12.2482 4.61953 12.3039 4.74264 12.3069 4.87454Z" fill="#FCC219"/>
</svg>
