<svg width="24" height="24" viewBox="0 0 24 24" fill="none" xmlns="http://www.w3.org/2000/svg">
<g id="ue910-Icona=Logout">
<path id="Vector" d="M9 6.375C9.0736 4.5231 10.6169 2.9506 12.6844 3.0012C13.1654 3.013 13.7599 3.1806 14.9489 3.516C17.8104 4.3232 20.2945 5.6797 20.8904 8.7185C21 9.277 21 9.9056 21 11.1627L21 12.8373C21 14.0944 21 14.723 20.8904 15.2815C20.2945 18.3204 17.8104 19.6768 14.9489 20.484C13.7599 20.8194 13.1654 20.9871 12.6844 20.9988C10.6169 21.0494 9.0736 19.4769 9 17.625" stroke="#141B34" style="stroke:#141B34;stroke:color(display-p3 0.0784 0.1059 0.2039);stroke-opacity:1;" stroke-width="1.5" stroke-linecap="round"/>
<path id="Vector_2" opacity="0.4" d="M3 12L14 12M3 12C3 12.7002 4.9943 14.0085 5.5 14.5M3 12C3 11.2998 4.9943 9.9915 5.5 9.5" stroke="#141B34" style="stroke:#141B34;stroke:color(display-p3 0.0784 0.1059 0.2039);stroke-opacity:1;" stroke-width="1.5" stroke-linecap="round" stroke-linejoin="round"/>
</g>
</svg>
